<svg width="1440" height="7042" viewBox="0 0 1440 7042" fill="none" xmlns="http://www.w3.org/2000/svg">
<path opacity="0.2" d="M1348.55 6977.66C1295.1 6929.35 1227.59 6864.5 1176.33 6814.64C1160.31 6799.04 1168.59 6806.82 1157.51 6796C1135.94 6774.93 1115.7 6755.27 1094.44 6734.3C1087.42 6727.37 1096.37 6735.74 1089.03 6728.51C1048.45 6688.5 1010.34 6650.89 969.372 6610.27C966.252 6607.18 962.071 6603.04 959.131 6600.13C912.061 6556.85 880.009 6498.72 826.594 6465.35C771.699 6434.21 706.229 6432.2 643.407 6428.55C581.661 6425.25 512.557 6415.63 467.95 6367.26C423.061 6317.02 435.255 6241.84 461.545 6185.47L462.159 6187.95C441.067 6172.09 423.355 6154.92 409.689 6133.06C349.269 6042.64 438.568 5927.39 504.669 5863.47C512.912 5855.34 507.817 5860 509.375 5858.44C533.677 5834.71 525.85 5842.97 542.568 5827.89C608.47 5769.38 688.495 5711.7 758.484 5663.65C788.328 5643.25 758.075 5663.18 788.339 5643.04C790.456 5641.64 782.967 5647.02 791.242 5641.47C809.926 5628.93 845.542 5605.27 859.943 5595.83C888.232 5577.25 892.686 5574.35 919.269 5556.88C955.594 5532.97 998.797 5504.71 1036.73 5477.72C1044.69 5472.02 1034.09 5479.27 1046.57 5470.25C1060.24 5460.54 1092.25 5436.01 1103.36 5425.8C1108.53 5421.24 1109.83 5420.05 1110.29 5419.72C1110.78 5419.37 1110.16 5420.04 1111.12 5419.17C1127.91 5406.69 1152.95 5364.63 1153.31 5358.22C1188.79 5244.22 1091.74 5156.06 1001.03 5113.01C963.756 5096.44 920.632 5085.54 879.32 5092.82C839.056 5100.13 798.686 5102.43 760.524 5101.22C668.565 5097.63 590.575 5077.33 511.169 5036.19C502.783 5031.71 512.372 5037.26 502.259 5031.77C394.15 4972.76 310.351 4877.41 252.583 4770.29C246.817 4759.58 254.516 4773.26 248.79 4762.51C245.965 4757.16 243.038 4751.48 240.045 4745.5C204.132 4679.27 176.909 4577.87 187.248 4535.91C192.356 4482.81 244.401 4436.89 287.112 4422.21C314.446 4412.12 287.993 4421.4 322.017 4410.62C329.923 4408.41 319.696 4410.86 331.357 4407.76C380.97 4394.98 437.03 4390.61 487.612 4389.14C498.012 4388.86 495.251 4388.7 498.103 4388.59C522.31 4387.66 563.499 4389.03 572.192 4389.41C639.736 4391.89 689.152 4395.59 751.989 4401.23C766.472 4402.57 749.396 4400.65 763.313 4401.94C773.467 4402.88 783.756 4403.88 794.159 4404.91C857.125 4411.53 923.875 4402.72 975.113 4368.69C988.227 4359.78 976.392 4368.28 982.605 4363.96C1009.03 4343.82 1013.86 4337.66 1033.26 4312.44C1037.16 4306.95 1035.17 4310.19 1035.89 4309.2C1047.23 4293.59 1054.11 4278.13 1056.22 4273.73C1081.98 4216.63 1089.13 4175.87 1091.65 4115.4C1091.77 4108.16 1091.24 4124.47 1091.47 4104.14C1091.45 4060.83 1086.3 4017.13 1074.23 3974.28C1061.42 3934.67 1045.76 3881.9 1001.44 3872.56C951.006 3870.19 900.242 3876.18 851.428 3867.83C830.779 3863.74 845.567 3866.43 844.267 3866.17C823.249 3861.36 810.312 3855.75 804.184 3852.65C753.271 3827.55 739.545 3770.82 734.689 3735.89C733.365 3725.17 732.622 3714.55 732.293 3703.38C685.207 3481.46 439.675 3396.56 262.926 3289.11C260.372 3287.67 265.14 3290.02 259.978 3287.09C233.618 3272.12 221.287 3264.27 212.83 3258.54C201.904 3250.47 195.176 3246.97 179.228 3226.36C171.041 3217.56 158.936 3184.02 159.452 3180.7C157.408 3169.52 160.102 3181 159.408 3177.26C156.817 3161.81 157.036 3155.15 157.077 3147.22C157.539 3139.34 157.376 3129.55 165.277 3109.64C165.782 3108.41 163.917 3113.7 165.289 3110.39C169.565 3100.18 175.05 3090.55 181.68 3081.91C197.548 3063.05 204.04 3056.27 236.246 3036.75C240.571 3034.88 232.945 3035.63 267.975 3021.36C281.651 3014.32 347.22 3000.69 366.024 3000.52C369.398 3000.23 371.791 3000.06 373.417 2999.96C379.307 2999.58 374.471 3000.11 373.437 3000.23C373.231 3000.25 373.165 3000.26 373.341 3000.25C373.374 3000.25 373.406 3000.25 373.438 3000.24C422.999 2995.16 404.228 2996.94 428.946 2992.91C453.637 2987.85 446.596 2988.03 456.357 2985.41C466.308 2982.89 501.704 2972.18 510.061 2969.2C518.589 2966.35 508.039 2970.19 515.624 2967.61C565.894 2949.7 537.331 2959 553.762 2952.56C592.041 2936.93 621.792 2924.51 656.085 2908.23C665.302 2903.82 657.696 2907.26 665.893 2903.26C698.375 2887.25 717.813 2877.59 753.917 2857.78C759.825 2854.57 788.705 2838.02 807.539 2827.62C810.214 2826.15 802.813 2830.68 816.209 2823.01C836.135 2811.66 871.942 2790.3 892.802 2777.23C908.362 2767.5 890.345 2778.3 909.945 2766.18C918.599 2760.8 902.75 2771.04 918.961 2760.91C935.378 2750.74 975.934 2724.28 991.54 2713.64C1006.81 2703.32 998.273 2708.73 999.505 2707.88C1007.08 2702.69 1036.15 2682.37 1038.79 2680.44C1088.58 2644.86 1137.64 2609.91 1179.46 2568.82C1246.36 2494.45 1188.38 2377.36 1104.47 2339.79C1093.68 2334.5 1100.73 2338.31 1099.09 2337.5C1061.03 2321.51 1091.4 2332.75 1064.29 2323.03C1068.08 2325.05 1052 2318.76 1023.15 2314.15C1009.14 2312.1 1016.71 2313.49 1015.44 2313.31C994.897 2310.91 980.212 2310.23 976.562 2309.99C962.396 2309.22 947.951 2310.11 938.14 2310.5C928.905 2310.93 950.24 2308.92 922.536 2311.14C914.673 2312.13 935.618 2310.62 914.233 2312.87C888.55 2315.77 855.517 2321.76 821.108 2331.21C748.823 2353.4 664.355 2331.67 625.612 2312.77C567.235 2285.13 551.242 2270.68 521.418 2247.99C469.562 2204.16 488.422 2220.33 457.991 2191.13C428.514 2160.75 443.634 2174.79 439.581 2170.25C435.722 2165.74 431.154 2161.04 426.335 2155.4C421.555 2149.78 432.189 2161.69 420.812 2148.61C409.19 2135.63 379.33 2098.49 375.691 2093.66C367.514 2083.37 379.535 2101.21 352.822 2063.67C351.326 2061.52 356.428 2068.32 350.699 2060.11C327.799 2027.09 306.203 1992.74 286.739 1957.03L286.837 1957.15C251.979 1936.19 212.384 1918.28 188.378 1884.71C181.954 1875.7 187.909 1883.6 184.282 1878.29C166.571 1849.67 166.641 1837.96 164.385 1831.37C162.963 1824.67 161.443 1821.55 160.216 1803.17C162.18 1811.34 157.249 1791.47 167.964 1743.95C168.211 1742.91 168.472 1741.87 168.749 1740.81C178.108 1711.81 176.984 1716.9 187.042 1699.93C189.905 1694.86 204.722 1678.62 207.575 1676.23C217.248 1667.94 199.496 1677.69 243.145 1648.44C245.069 1647.29 239.098 1651.23 245.752 1647.23C290.817 1622.67 297.105 1620.64 349.811 1603.08C391.472 1589.65 467.036 1572.78 515.634 1562.74C514.719 1563.78 560.577 1554 579.098 1549.55C610.592 1543 644.532 1535.75 674.996 1528.9C685.395 1526.56 678.622 1528.36 679.938 1528.08C700.136 1523.89 713.708 1520 720.427 1518.34C793.398 1500.13 852.654 1483.44 919.422 1456.95C921.791 1455.97 925.392 1454.06 943.307 1447.01C944.455 1446.53 922.722 1456.09 953.823 1442.83C984.911 1429.7 1042.05 1401.07 1080.43 1373.93C1089.81 1367.59 1112.84 1350.39 1130.55 1335.72C1132.92 1333.77 1130.48 1336.08 1133.91 1333.27C1144.92 1324.14 1150.39 1318.42 1162.72 1307.04C1174.93 1295.58 1200.17 1270.69 1226.61 1231.4C1227.43 1230.16 1233.25 1220.94 1240.91 1208.29C1241 1208.14 1241.09 1207.99 1241.19 1207.84C1253.47 1187.63 1264.92 1155.4 1269.89 1131.08C1272.25 1119.45 1270.44 1126.83 1270.85 1124.81C1284.54 1048.54 1269.44 976.216 1193.04 934.225C1179.76 925.855 1136.63 911.161 1106.58 907.191C1073.54 903.227 1107.88 902.592 1032.5 900.54C1031.98 900.542 1031.46 900.544 1030.94 900.546C999.532 900.519 960.902 901.783 905.624 894.654C798.715 882.288 700.378 853.92 609.4 795.266C605.247 792.613 592.364 784.519 583.129 777.605C569.675 767.562 562.503 761.337 553.312 753.506C514.882 720.464 483.869 685.321 454.633 646.188C443.652 631.328 447.561 636.312 434.758 618.335C421.958 600.292 413.633 588.179 396.043 563.753C389.805 555.205 383.168 546.254 375.786 537.593C367.298 528.067 357.834 518.12 346.538 507.136C345.298 506.926 330.617 492.248 302.847 468.258C297.489 463.651 303.066 468.792 300.52 466.62C290.173 457.813 280.669 449.593 270.593 441.53C268.149 439.577 267.891 439.657 265.87 438.068C248.774 424.483 220.394 402.505 215.411 398.862C196.495 384.662 187.213 378.631 172.23 368.401C157.211 358.289 179.893 373.08 162.267 361.374C125.734 337.127 76.4883 309.212 35.3046 292.119C18.8552 285.332 29.9669 290.238 27.6112 289.271C15.1108 284.244 2.1663 279.568 -9.97748 275.821C-31.1142 269.447 -48.2485 259.453 -58.2505 251.348C-67.3525 242.461 -70.7687 237.996 -75.8951 230.807C-80.5107 223.439 -88.4669 212.643 -90.8084 186.251C-90.9596 182.122 -90.9899 176.904 -89.2644 192.604C-87.4997 208.185 -78.7648 231.698 -62.1121 246.484C-59.0752 250.874 -33.3838 266.193 -29.4339 266.969C-20.8792 270.698 -14.773 272.719 -9.55165 274.438C2.74603 278.501 5.12917 280.101 6.21923 280.493C24.2163 287.134 57.9099 301.402 66.505 305.771C106.201 324.959 138.181 344.647 169.022 364.773C189.122 378.083 191.41 378.91 206.84 389.911C257.536 427.124 274.064 441.881 319.021 480.388C328.556 488.973 320.129 479.344 352.603 511.414C353.851 512.683 365.703 524.648 376.708 536.736L376.73 536.761C381.601 542.315 386.47 548.368 390.277 553.126C391.82 555.061 391.989 554.904 393.96 557.481C407.043 574.78 415.027 586.958 428.618 606.211C442.196 625.507 458.759 648.411 475.587 669.372C485.742 682.174 499.073 697.942 504.276 703.674C518.815 720.062 536.188 735.968 546.084 745.179C556.16 754.408 535.397 737.486 562.692 760.874C564.087 761.258 566.831 762.708 568.874 763.58C630.38 812.876 701.081 846.914 777.065 868.22C786.4 870.805 776.899 867.877 786.986 870.592C829.721 881.781 867.835 888.731 913.557 893.641C948.857 897.374 987.77 899.066 1024.94 899.171C1027.15 899.249 1029.69 899.315 1032.5 899.364C1058.81 899.555 1107.23 902.293 1142.87 912.391C1156.43 916.209 1155.41 916.202 1165 919.602C1200.15 934.136 1183.5 927.135 1193.14 931.508C1231.03 954.643 1236.71 957.8 1262.11 1003.61C1264.16 1005.79 1275.09 1038.31 1275.05 1043.2C1279.31 1072.88 1275.86 1048.12 1277.37 1066.78C1278.34 1100.92 1274.86 1124.85 1263.1 1163.06C1260.1 1172.3 1253.23 1192.35 1242.81 1209.44C1240.73 1212.85 1238.62 1216.16 1236.55 1219.31C1234.9 1221.8 1235.59 1220.28 1234.27 1222.29C1210.04 1257.9 1208.94 1258.88 1193.46 1278C1177.73 1297.24 1149.63 1323.19 1143.56 1328.08C1128.07 1341.26 1155.1 1317.61 1155.73 1316.63C1164.76 1307.32 1144.85 1326.92 1128.38 1340.34C1125.67 1341.89 1102.26 1360.16 1111.15 1354.07C1112.2 1353.42 1125.13 1343.08 1128.38 1340.34C1114.55 1352.86 1088.58 1372.97 1057.47 1391.36C1042.75 1399.69 1056.87 1392.08 1011.88 1416.79C991.273 1427.51 999.513 1423.9 981.059 1432.99C938.891 1453.65 881.49 1474.68 835.306 1488.99C818.551 1494.2 834.969 1489.43 823.508 1492.97C793.048 1502.27 765.925 1509.42 734.921 1517.32C732.117 1518.03 739.045 1516.6 729.412 1519.01C656.379 1537.09 591.724 1549.67 514.955 1565.85C477.69 1573.62 411.532 1588.53 373.779 1599.48C309.297 1617.25 226.831 1648.16 192.293 1696.03C171.537 1727.1 177.847 1721.31 172.13 1736.06C171.366 1738.64 170.619 1741.44 169.932 1744.42C161.146 1775.42 163.314 1822.15 165.874 1828.55C165.234 1828.96 162.041 1796.61 163.483 1813.94C164.205 1823.8 165.859 1828.27 165.874 1828.55C166.284 1830.89 169.65 1848.12 178.184 1864.39C186.355 1880.84 199.568 1895.24 204.186 1899.65C209.185 1904.5 206.593 1901.59 209.237 1904.06C232.125 1925.73 261.204 1937.53 288.648 1954.95L289.241 1955.67C316.016 2004.35 346.909 2051.47 380.982 2096.45C381.916 2097.68 380.257 2096.01 382.461 2098.91C413.706 2139.55 435.713 2163.83 465.554 2193.65C495.548 2223.28 521.422 2244.49 541.16 2259.68C566.536 2278.85 605.996 2302.02 630.237 2312.04C654.351 2322.26 658.321 2322.1 660.435 2322.95C720.856 2340.95 762.616 2342.38 820.246 2328.06C828.291 2325.87 836.568 2323.77 845.138 2321.77C879.621 2312.71 950.871 2303.83 989.445 2307.47C1020.06 2309.59 1038.62 2312.96 1065.76 2320.93C1069.41 2322.06 1065.81 2320.65 1066.92 2320.99C1096.99 2331.01 1082.28 2326.89 1088.34 2329.22C1109.7 2339.28 1123.86 2344.81 1154.57 2371.31C1161.68 2377.25 1180.85 2397.11 1189.3 2412.2C1200.03 2431.79 1196.37 2424.29 1204.58 2446.15C1205.09 2448.11 1205.65 2447.4 1208.95 2461.57C1217.12 2497.96 1210.51 2542 1182.03 2571.29C1160.82 2592.86 1136.03 2612.43 1112.45 2630.82C1105.18 2636.43 1114.81 2629.45 1104.12 2637.64C1053.61 2676.16 996.021 2715.56 944.038 2748.9C931.251 2757.08 939.128 2751.74 936.317 2753.46C918.911 2764.17 894.883 2779.81 890.849 2782.28C794.418 2841.47 718.438 2883.6 613.366 2931.57C607.593 2934.34 563.668 2953.87 542.918 2960.89C541.638 2961.35 521.175 2968.51 503.637 2974.72C502.442 2975.12 515.421 2971.2 493.054 2978.48C471.223 2985.52 434.768 2996.01 403.012 3000.51C397.645 3001.29 386.625 3002.72 373.687 3003.6C363.402 3004.3 352.216 3005.41 339.351 3007.5C337.618 3007.26 292.283 3017.11 276.918 3022.64C274.446 3023.82 276.155 3020.39 244.059 3035.92C238.086 3039.17 248.833 3033.42 233.441 3042.09C209.804 3055.6 181.27 3080.41 169.19 3111.73C166.672 3116.97 159.606 3140.85 160.855 3160.68C161.021 3163.76 160.195 3157.93 161.155 3168.32C164.88 3202.7 185.559 3235.46 214.844 3255.66C227.925 3264.71 241.382 3272.54 255.131 3280.5C271.347 3289.75 262.44 3285.2 279.397 3294.76C295.908 3304.04 329.762 3322.59 347.255 3332.07C365.011 3341.7 346.058 3330.42 372.271 3344.98C484.917 3409.09 599.478 3475.19 683.329 3576.79C695.101 3592.4 685.917 3578.74 702.144 3602.67C718.543 3628.16 735.547 3663.1 736.735 3703.24C737.978 3750 748.473 3804.5 784.771 3834.79C820.879 3865.05 867.624 3866.64 898.944 3868.17C971.501 3868.93 880.138 3869.19 935.649 3869.13C962.463 3868.67 991.598 3867.97 998.156 3868.43C999.329 3868.47 1000.49 3868.52 1001.64 3868.57C1036.15 3873.89 1048.84 3903.58 1060.5 3925.4C1071.5 3948.81 1078.87 3972.81 1084.86 4000.26C1087.31 4012.02 1085.29 4000.51 1087.23 4010.31C1093.74 4044.13 1096.37 4080.4 1095.68 4113.3C1095.27 4128.03 1095.61 4125.39 1094.71 4138.91C1092.19 4171.33 1087.15 4199.83 1077.71 4230.16C1076.83 4232.91 1082.34 4214.23 1075.14 4237.19C1063.21 4274.17 1039.82 4318.12 1006.71 4348.91C996.712 4357.75 997.441 4359.44 973.091 4375.06C967.752 4377.77 974.98 4374.76 944.978 4389.68C940.481 4393.29 886.783 4410.79 858.695 4410.62C851.966 4411.11 832.29 4411.34 817.159 4410.63C815.002 4410.53 823.635 4411.27 810.451 4410.61C804.998 4410.29 799.42 4409.85 793.721 4409.29C752.448 4405.22 709.828 4401.41 667.991 4398.61C655.231 4397.78 674.178 4399.33 655.223 4398.1C603.197 4394.73 538.624 4392.35 487.534 4393.72C468.746 4394.25 481.722 4393.62 480.348 4393.63C458.833 4393.9 445.313 4395.44 438.359 4395.97C393.499 4399.66 358.961 4404.12 319.018 4415.62C308.1 4418.95 315.924 4416.86 313.762 4417.55C291.626 4425.17 307.896 4419.07 293.889 4424.16C255.142 4438.3 214.395 4467.62 199.751 4507.42C194.494 4521.9 200.453 4505.68 196.178 4518.76C175.931 4595.15 210.551 4674.93 243.875 4743.57C246.025 4747.85 248.185 4752.06 250.355 4756.22C257.484 4769.72 252.766 4761.35 254.211 4764.18C264.038 4783.63 281.257 4810.74 285.494 4817.03C303.889 4844.82 311.49 4855.59 329.997 4878.95C417.396 4995.94 584.87 5085.95 722.423 5094.18C777.44 5099.46 829.796 5097.18 878.528 5088.47C991.174 5077.51 1096.32 5143.23 1151.21 5247.6C1155.6 5257.7 1151.57 5247.36 1155.17 5256.12C1180.59 5313.53 1159.84 5383.25 1113.45 5423.11C1068.93 5463.4 1018.36 5496.15 968.032 5530.17C959.653 5535.76 971.685 5528.13 958.601 5536.85C931.392 5554.96 896.651 5577.67 869.029 5595.74C855.414 5604.65 873.473 5592.44 859.816 5601.39C828.39 5621.98 794.412 5644.56 762.529 5666.44C748.902 5675.81 769.655 5661.95 751.934 5674.13C633.414 5758.12 510.884 5840.95 428.371 5963.17C423.195 5971.73 417.649 5978.97 409.072 5998.46C408.589 6000.02 408.82 6000.02 408.719 6000.75C375.976 6066.05 405.267 6144.33 465.182 6183.9L467.178 6185.39L466.111 6187.64C440.503 6242.61 428.75 6315.16 471.187 6363.28C513.343 6409.99 581.861 6420.32 643.621 6423.46C658.717 6424.1 673.159 6424.93 687.934 6426.1C696.955 6426.85 681.537 6425.19 698.758 6426.69C748.737 6431.72 800.725 6438.78 842.555 6469.21C883.55 6500.16 910.642 6543.4 946.841 6579.86C952.823 6586.08 950.707 6584.66 962.6 6596.61C964.635 6598.64 967.464 6601.44 971.229 6605.14C974.679 6608.52 1007.64 6641.03 1015.72 6648.83C1016.88 6649.95 1011.11 6643.86 1021.67 6654.28C1082.19 6714.03 1145.78 6776.56 1206.83 6835.65C1216.69 6845.19 1205.96 6835.26 1212.99 6842.07C1262.79 6890.19 1317.41 6941.87 1366.69 6986.35C1399.77 7015.83 1387.3 7005.48 1404.64 7020.82C1407.59 7023.57 1428.17 7039.75 1429.96 7040.98C1431.2 7042.29 1429.1 7041.33 1426.98 7040.29C1424.87 7039.26 1422.81 7038.23 1425.04 7040.36C1425.67 7040.87 1433.3 7046.66 1439.36 7049.53C1441.38 7050.43 1442.43 7050.8 1443.99 7050.95C1446.07 7051.17 1447.4 7049.74 1447.55 7049.42C1447.67 7049.25 1447.66 7049.32 1447.42 7049.66C1447.2 7049.99 1446.63 7050.63 1445.58 7050.93C1445.07 7051.08 1444.47 7051.14 1443.78 7051.09C1443.7 7051.09 1443.61 7051.08 1443.52 7051.07C1443.43 7051.06 1443.42 7051.06 1443.36 7051.05C1443.27 7051.04 1443.17 7051.02 1443.07 7051.01C1442.86 7050.98 1442.65 7050.94 1442.41 7050.88C1441.47 7050.67 1440.29 7050.27 1438.62 7049.49C1437.02 7049.71 1414.82 7033.7 1409.91 7029.55C1406.33 7026.77 1412.56 7032.23 1405.17 7026.37C1397.74 7020.41 1390.05 7013.58 1378.41 7003.6C1366.57 6993.35 1371.45 6998.26 1348.55 6977.66ZM744.38 2338.65C768.648 2338.83 772.127 2337.53 745.992 2338.16C744.721 2338.16 743.126 2338.6 744.38 2338.65ZM701.86 843.034C731.007 855.603 752.505 861.479 731.084 853.769C710.277 845.921 692.942 839.05 701.86 843.034ZM449.385 637.559C471.362 667.554 476.182 671.213 451.933 639.637C450.551 637.795 448.134 635.815 449.385 637.559ZM1323.08 6948.44C1323.17 6948.56 1337.93 6962.17 1338.21 6962.39C1346.19 6969.28 1317.07 6942.45 1323.08 6948.44ZM222.73 403.312C232.046 410.332 258.533 430.735 247.319 421.671C238.293 414.229 211.262 394.491 222.73 403.312ZM657.225 2908.25C656.897 2908.41 644.117 2914.47 644.389 2914.43C645.442 2914.27 663.088 2905.73 657.225 2908.25ZM-37.5324 36.2275C-82.5186 105.31 -96.1503 154.797 -60.7051 72.0266C-53.2916 57.5409 -76.0432 103.574 -66.7796 85.0489C-49.6206 51.3322 -36.3392 29.6252 -10.7589 0.578923C-6.44241 -5.03495 -35.5322 31.9216 -37.6142 36.3497C-37.5869 36.3089 -37.5597 36.2682 -37.5324 36.2275ZM758.382 2339.82C758.84 2339.99 778.478 2338.61 778.853 2338.38C789.371 2337.25 750.104 2340.18 758.382 2339.82ZM308.809 3314.13C309.988 3314.79 349.432 3336.47 350.887 3337.28C371.907 3348.21 291.475 3303.94 308.809 3314.13ZM516.397 1562.6C537.21 1557.87 562.183 1552.65 579.002 1549.56C558.162 1553.9 537.257 1558.22 516.397 1562.6Z" fill="#505050"/>
</svg>
