<svg width="150" height="150" viewBox="0 0 157 157" fill="none" xmlns="http://www.w3.org/2000/svg">
<g opacity="0.3">
<path d="M104.079 85.1854C93.2821 126.439 73.0778 156.89 58.952 153.2C44.8261 149.509 42.1279 113.074 52.9253 71.82C63.7227 30.566 83.9269 0.114941 98.0528 3.80571C112.179 7.49648 114.877 43.9314 104.079 85.1854Z" stroke="#505050" stroke-width="7"/>
<path d="M103.723 53.3056C133.901 83.4576 147.074 119.182 133.146 133.098C119.218 147.014 83.4624 133.853 53.2844 103.701C23.1065 73.549 9.93353 37.8247 23.8618 23.9084C37.7901 9.99215 73.5453 23.1537 103.723 53.3056Z" stroke="#505050" stroke-width="7"/>
<path d="M71.2419 51.43C112.466 40.3936 149.135 43.5677 153.145 58.5194C157.154 73.4711 126.986 94.5386 85.7625 105.575C44.5387 116.611 7.86959 113.437 3.85983 98.4856C-0.149928 83.5339 30.0181 62.4664 71.2419 51.43Z" stroke="#505050" stroke-width="7"/>
<path d="M92.4673 78.5021C92.4673 86.2077 86.2153 92.4542 78.5032 92.4542C70.791 92.4542 64.5391 86.2077 64.5391 78.5021C64.5391 70.7966 70.791 64.5501 78.5032 64.5501C86.2153 64.5501 92.4673 70.7966 92.4673 78.5021Z" stroke="#505050" stroke-width="7"/>
<path d="M59.0622 20.4193C59.0622 23.9048 56.2342 26.7303 52.7457 26.7303C49.2573 26.7303 46.4293 23.9048 46.4293 20.4193C46.4293 16.9339 49.2573 14.1083 52.7457 14.1083C56.2342 14.1083 59.0622 16.9339 59.0622 20.4193Z" stroke="#505050" stroke-width="7"/>
<path d="M149.897 78.503C149.897 81.9884 147.069 84.814 143.581 84.814C140.092 84.814 137.264 81.9884 137.264 78.503C137.264 75.0175 140.092 72.192 143.581 72.192C147.069 72.192 149.897 75.0175 149.897 78.503Z" stroke="#505050" stroke-width="7"/>
<path d="M53.3926 133.557C53.3926 137.042 50.5647 139.868 47.0762 139.868C43.5878 139.868 40.7598 137.042 40.7598 133.557C40.7598 130.071 43.5878 127.246 47.0762 127.246C50.5647 127.246 53.3926 130.071 53.3926 133.557Z" stroke="#505050" stroke-width="7"/>
</g>
</svg>
