<svg width="100" height="100" viewBox="0 0 100 100" fill="none" xmlns="http://www.w3.org/2000/svg">
<g opacity="0.3">
<path d="M50.0431 3.58887C24.1993 3.58887 3.21045 24.5713 3.21045 50.415C3.21045 76.2588 24.1993 97.2471 50.0431 97.2471C75.8868 97.2471 96.8751 76.259 96.8751 50.4152C96.8751 24.5715 75.8868 3.58887 50.0431 3.58887ZM50.0431 7.08008C70.1159 7.08008 86.9751 20.6863 91.913 39.1906L76.4222 23.2785L75.0614 21.8811L73.7552 23.34L58.6731 40.2225C56.4527 38.2385 54.2086 36.2811 51.9413 34.3508L50.6595 33.2521L49.4632 34.4545C45.8119 38.1305 42.2024 41.8478 38.6354 45.6057L23.7063 29.3215L22.3636 27.8566L21.0208 29.3215L7.11689 44.4217C10.0321 23.3086 28.1218 7.08008 50.0431 7.08008ZM70.0138 35.8457L69.2628 42.7551L73.4743 36.5051L75.5739 39.7645L77.5208 38.1102L82.8309 43.3473L81.4454 36.5906L85.254 37.5793L92.9079 45.4406L93.0726 45.282C93.2749 46.9855 93.3769 48.6994 93.378 50.4148C93.378 57.6479 91.6085 64.4611 88.4829 70.4529C79.4497 60.0076 70.4142 50.899 61.3833 42.6633L63.5317 40.2586L70.0141 35.8457H70.0138ZM27.0138 40.2891L32.1774 43.9574L36.1267 48.2605C28.4177 56.4684 20.7692 65.0254 13.4821 73.7184C9.18916 66.9912 6.70127 58.9957 6.70127 50.415V50.2627L9.8751 46.8139L17.1505 42.8711L13.7937 53.4303L21.9603 43.4264L27.2946 49.817L27.0138 40.2893V40.2891ZM54.6261 52.3314L65.0083 64.2334L63.5067 53.5766L75.4517 61.5234C79.2517 65.5142 82.9476 69.6028 86.5356 73.7852L86.5724 73.7488C78.8776 85.7844 65.404 93.7559 50.0431 93.7559C36.0274 93.7559 23.5815 87.1168 15.6616 76.8125C19.3989 72.3379 23.2349 67.8975 27.1304 63.5195L38.0981 56.9152L32.3731 71.9055L44.3907 57.5744L45.6114 63.8615L49.4263 56.6773L58.7708 70.2516L54.6263 52.3316L54.6261 52.3314Z" fill="#505050"/>
</g>
</svg>
