<svg width="192" height="183" viewBox="0 0 192 183" fill="none" xmlns="http://www.w3.org/2000/svg">
<path opacity="0.3" d="M147.551 141.898L126.399 107.425L86.2096 108.5M147.551 141.898L128.272 177.451L87.843 178.532L66.6918 144.06L66.7468 143.96M147.551 141.898L191.536 141.898M86.2096 108.5L86.2646 108.4L65.1134 73.9278L24.684 75.0092L5.40573 110.563L26.5569 145.035L66.7468 143.96M86.2096 108.5L66.7468 143.96M84.8989 38.025L63.7477 3.55275L23.3183 4.6341L4.0401 40.1877L25.1913 74.6599L65.3811 73.585M84.8989 38.025L84.8439 38.1252M84.8989 38.025L105.132 3.55275M84.8439 38.1252L125.034 37.0502L146.185 71.5225L126.907 107.076L86.4773 108.157L65.3261 73.6852L65.3811 73.585M84.8439 38.1252L65.3811 73.585" stroke="#505050" stroke-width="7"/>
</svg>
