<svg width="1103" height="2687" viewBox="0 0 1103 2687" fill="none" xmlns="http://www.w3.org/2000/svg">
<path opacity="0.2" d="M39.4461 188.742C64.8456 186.957 97.7763 180.035 121.404 170.866C128.834 168.006 125.139 169.667 130.224 167.597C140.121 163.462 149.025 158.896 158.179 153.588C161.207 151.813 157.609 154.317 160.778 152.432C178.048 142.02 193.001 129.752 206.606 114.566C207.272 113.82 207.933 113.068 208.589 112.309C268.496 40.6044 360.482 4.22942 452.869 0.443688C462.02 -0.139831 471.291 -0.144117 480.511 0.408759C514.67 2.20489 556.405 13.9349 584.607 36.1055C587.899 38.694 586.101 36.9459 586.738 37.4254C596.408 45.2555 592.944 42.9986 598.567 48.8219C621.673 72.1752 628.667 111.55 620.102 141.166C616.588 153.97 620.883 141.383 616.583 153.866C616.26 154.734 617.108 151.471 615.881 154.892C613.224 162.674 606.686 176.64 603.565 182.066C597.443 192.924 596.615 194.159 590.097 203.969C581.532 216.674 569.302 231.714 558.434 243.805C556.022 246.492 559.461 243.128 555.59 247.444C551.453 252.101 541.479 262.357 537.516 266.119C533.732 269.755 535.161 268.031 534.463 268.647C529.363 273.139 517.702 284.66 515.025 287.089C514.909 287.198 514.813 287.287 514.738 287.355C484.739 314.909 465.793 346.242 458.41 383.644C452.706 412.073 455.194 443.567 461.672 470.349C469.419 502.254 480.633 528.488 495.823 556.433C497.479 559.431 495.822 555.758 497.859 559.418C519.322 597.652 545.657 632.63 574.569 665.419C577.462 668.685 573.492 664.689 576.376 667.963C594.064 688.387 624.069 718.236 636.943 727.918C650.329 740.161 667.199 754.501 679.722 764.815C687.834 771.475 679.63 765.406 689.868 773.267C692.186 775.031 689.363 772.491 692.83 775.147C707.377 786.279 723.57 798.161 738.634 808.271C741.699 810.327 741.007 809.552 741.896 810.103C749.336 814.75 761.303 823.236 763.977 824.967C784.269 838.244 799.648 847.14 819.544 858.027C824.164 860.533 818.859 857.286 823.311 859.677C846.31 872.012 870.918 883.874 894.443 893.872C899.654 896.081 894.741 894.342 897.226 895.408C908.364 900.115 911.085 900.602 921.778 904.743C924.034 905.604 922.674 905.359 923.078 905.537C929.332 908.295 935.389 909.763 937.062 910.323C958.44 917.389 972.236 922.077 993.404 927.058C995.969 927.642 990.264 926.012 997.464 927.654C1004.05 929.132 1010.65 930.478 1017.23 931.679C1059.5 937.06 1106.16 968.261 1102.61 1014.03C1102.44 1021.42 1102.31 1016.14 1102.28 1016.6C1101.62 1024.17 1101.37 1029.44 1101 1032.01C1098.15 1050.9 1091.03 1067.83 1086.15 1080.57C1050.85 1155.39 995.589 1217.09 937.861 1274.77C937.11 1275.51 938.24 1273.97 936.742 1275.44C919.109 1292.64 922.764 1289.61 911.172 1301.46C908.18 1304.51 898.571 1312.55 897.723 1313.25C894.635 1315.86 897.414 1312.7 896.397 1313.59C887.958 1320.97 890.321 1320.8 878.955 1331.03C878.596 1331.35 879.918 1329.81 878.943 1330.65C875.928 1333.24 872.966 1336.01 870.05 1338.47C863.305 1344.12 860.508 1345.67 850.483 1354.82C849.201 1355.98 851.776 1354.9 841.328 1363.7C837.126 1367.29 818.866 1382.43 813.534 1386.63C808.275 1390.82 811.698 1387.71 811.318 1388C796.967 1399.11 802.218 1394.68 794.842 1399.89C787.449 1405.06 790.163 1404.48 787.351 1406.86C784.541 1409.25 773.88 1417.12 771.217 1419.02C768.566 1420.92 771.696 1418.32 769.357 1420.03C753.827 1431.36 763.014 1425.61 758.087 1429.57C746.469 1438.86 736.559 1445 725.421 1452.9C722.41 1455.03 724.977 1453.44 722.319 1455.37C711.774 1462.98 705.211 1467.26 693.17 1475.87C691.208 1477.27 681.62 1484.48 674.943 1488.46C673.998 1489.02 676.466 1487.1 671.823 1490.14C664.887 1494.69 652.4 1502.8 644.946 1507.66C639.418 1511.26 645.993 1507.51 638.929 1511.88C635.788 1513.81 641.441 1509.96 635.549 1513.6C629.692 1517.24 614.779 1526.5 609.093 1529.94C603.424 1533.39 606.667 1531.75 606.224 1532.04C603.47 1533.85 592.492 1540.56 591.514 1541.12C542.305 1570.15 495.432 1594.23 444.6 1616.66C440.541 1618.43 443.366 1617.53 442.748 1617.81C428.912 1623.88 439.536 1618.48 429.765 1622.32C431.398 1622.28 425.635 1624.63 415.991 1628.56C411.348 1630.45 413.97 1629.66 413.554 1629.85C406.886 1632.88 401.577 1634.39 400.305 1634.78C395.464 1636.25 390.5 1638.51 387.238 1639.44C383.983 1640.36 391.172 1637.43 381.72 1640.81C379.145 1641.94 386.343 1640.01 379.206 1642.62C367.537 1646.89 349.506 1652.76 332.73 1657.29C310.162 1663.27 291.196 1672.87 280.446 1680.2C261.824 1693.2 256.896 1699.68 248.534 1709.88C234.618 1729.75 240.02 1722.89 233.49 1736.22C227.887 1750.1 229.815 1743.08 228.771 1744.99C227.821 1746.93 227.266 1749.23 226.338 1751.77C225.424 1754.32 226.989 1748.67 225.099 1754.75C223.017 1760.85 220.303 1777.37 220.372 1779.78C220.322 1784.52 221.441 1777 219.764 1793.41C219.688 1794.33 219.627 1791.32 219.353 1794.85C217.192 1823.4 221.121 1854.51 227.134 1881.88C227.996 1885.79 226.904 1882.36 227.409 1884.64C233.12 1908.73 231.496 1899.68 235.595 1912.17C234.11 1909.6 235.37 1916.51 241.34 1934.25C245.06 1945.03 244.626 1942.69 247.271 1949.28C248.048 1951.21 250.581 1958.51 251.25 1959.77C253.46 1963.94 251.113 1956.82 258.13 1974.6C258.444 1975.38 257.156 1973.01 258.261 1975.71C265.469 1992.97 266.611 1994.26 275.269 2012.5C282.307 2027.3 294.251 2051.11 303.257 2067.23C302.409 2067.5 310.66 2081.72 314.657 2087.32C320.428 2097.25 327.064 2108.13 332.941 2117.68C334.931 2120.9 333.4 2118.92 333.631 2119.34C337.18 2125.78 340.371 2129.69 341.733 2131.77C356.616 2154.43 368.717 2172.81 384.192 2193.56C384.747 2194.3 386.084 2195.16 389.846 2201.04C390.091 2201.42 384.781 2194.63 392.02 2204.54C399.17 2214.33 412.641 2232.65 423.433 2245.83C426.049 2249.05 432.833 2256.81 437.744 2263.43C438.398 2264.32 437.507 2263.49 438.436 2264.78C441.449 2268.95 443.688 2270.75 447.158 2275.74C450.616 2280.7 458.467 2290.75 469.847 2303.37C470.209 2303.77 473.19 2306.5 476.703 2310.52C482.303 2316.95 490.301 2326.08 496.318 2332.7C499.198 2335.87 497.573 2333.64 498.077 2334.19C517.587 2355.31 531.435 2370.28 553.102 2392.18C557.066 2396.19 568.884 2407.3 576.547 2415.07C584.994 2423.59 574.964 2416.2 595.361 2434.83C603.629 2442.32 615.229 2450.5 629.563 2464.35C658.936 2489.77 686.463 2512.83 717.687 2535.78C719.098 2536.82 723.749 2539.64 727.123 2542.12C732.076 2545.77 734.665 2547.93 738.207 2550.49C753.137 2561.27 766.581 2570.24 781.582 2580.1C787.205 2583.77 785.101 2582.71 791.816 2587.03C798.53 2591.31 803.184 2593.86 812.224 2599.55C818.941 2603.76 825.911 2608.69 835.256 2614.12C835.94 2613.74 842.407 2617.52 853.993 2623.62C856.22 2624.79 853.958 2623.3 855.017 2623.84C859.358 2626.06 863.071 2628.24 867.368 2630.34C868.397 2630.84 868.548 2630.67 869.395 2631.06C876.601 2634.46 887.985 2640.63 889.942 2641.66C897.439 2645.65 901.131 2647.04 906.927 2649.83C912.713 2652.6 903.912 2648.8 910.703 2651.95C925.287 2658.72 944.058 2666.34 958.89 2671.69C965.015 2673.9 960.936 2672.12 961.815 2672.43C974.497 2676.9 987.122 2681.18 994.232 2682.64C1002.5 2686.59 1001.72 2684.85 1020.17 2689.77C1021.62 2690.13 1023.31 2691.3 1017.69 2690.04C1012.09 2688.79 1003.47 2686.28 996.045 2684.28C994.261 2683.83 983.832 2681.37 982.413 2680.93C971.339 2677.72 970.113 2676.06 969.555 2675.82C963.087 2672.97 950.553 2669.11 947.382 2667.91C932.695 2662.52 920.09 2656.98 907.922 2651.65C900.102 2648.2 899.036 2648.47 892.925 2645.55C872.642 2635.66 865.725 2630.9 846.879 2621.59C842.804 2619.51 846.384 2622.5 832.396 2613.83C831.529 2613.3 821.151 2606.63 814.937 2603.27C814.167 2602.86 814.073 2603.07 813.078 2602.49C806.41 2598.6 802.103 2595.73 794.875 2591.28C787.648 2586.82 778.951 2581.34 770.822 2575.82C765.952 2572.52 760.091 2568.01 757.842 2566.34C751.532 2561.65 744.321 2557.16 740.532 2554.02C736.714 2550.84 744.903 2556.04 734.487 2548.27C733.752 2548.47 732.5 2548.31 731.524 2548.33C708.542 2531.63 686.534 2514.31 664.591 2496.28C661.872 2494.04 664.448 2496.58 661.53 2494.18C649.238 2484.06 638.675 2474.75 626.206 2463.9C616.566 2455.51 605.907 2446.34 596 2437.27C590.409 2431.2 575.809 2417.75 565.529 2407.59C561.925 2404.03 562.295 2404.14 559.771 2401.57C550.274 2391.87 554.381 2396.76 551.675 2394.2C540.123 2383.16 540.093 2381.25 527.01 2367.71C526.311 2367 517.392 2358.66 516.217 2357.47C508.707 2349.89 515.187 2356.01 510.671 2351.1C502.47 2342.15 496.811 2335.73 487.108 2325.22C484.275 2322.15 477.297 2314.97 472.258 2308.64C471.595 2307.81 472.159 2308.1 471.609 2307.44C461.678 2295.63 460.814 2295.7 454.873 2289.09C448.918 2282.44 440.6 2271.54 438.966 2269.29C434.66 2263.41 442.622 2273.51 442.913 2273.79C446.212 2277.08 439.783 2269.43 435.033 2263.49C434.898 2262.18 428.221 2253.94 430.119 2257.34C430.335 2257.73 434.094 2262.29 435.033 2263.49C430.296 2258.79 422.841 2249.66 415.365 2238.96C411.898 2233.96 415.631 2238.29 404.36 2223.76C399.284 2217.15 400.819 2220.02 396.313 2214.24C386.002 2201 373.383 2182.64 363.617 2168.55C360.058 2163.42 363.273 2168.59 360.838 2165.09C354.311 2155.68 348.76 2146.99 342.432 2137.44C341.858 2136.57 342.997 2138.86 341.054 2135.87C326.598 2113.53 314.049 2092.53 300.488 2068.22C293.582 2055.94 282.267 2034.74 276.084 2021.89C265.069 1999.45 253.584 1971.74 246.223 1952.06C241.496 1939.42 242.363 1942.49 240.16 1936.8C235.873 1925.84 230.923 1906.6 230.415 1904.08C230.364 1903.99 233.636 1915.11 232.063 1909.13C231.37 1905.59 230.453 1904.21 230.415 1904.08C230.002 1902.89 224.139 1879 223.391 1874.67C222.859 1872.21 222.872 1873.64 222.604 1872.36C216.26 1841.51 213.291 1809.34 218.152 1777.44C218.243 1776.88 218.414 1777.77 218.629 1776.45C221.746 1758.31 225.142 1746.37 231.285 1732.41C237.651 1718.33 245.286 1708.25 251.592 1701.78C258.845 1692.94 272.401 1682.02 280.226 1677.32C288.298 1672.31 289.412 1671.28 290.119 1670.82C306.009 1662 316.768 1658.31 331.849 1654.08C338.587 1652.27 345.838 1650.22 354.437 1647.55C367.086 1643.71 390.326 1635.47 403.585 1630.21C413.795 1626.2 419.753 1623.94 429.082 1619.96C430.34 1619.42 428.962 1619.71 429.343 1619.54C439.644 1614.84 434.892 1617.54 437.092 1616.74C445.169 1613.71 449.865 1611.95 462.872 1605.79C465.87 1604.37 474.284 1599.43 479.792 1596.72C486.97 1593.19 484.364 1594.83 491.69 1591.15C492.316 1590.84 492.092 1590.73 496.632 1588.49C517.857 1577.99 540.553 1566.07 562.108 1553.88C565.05 1552.22 561.137 1554.05 565.351 1551.66C584.952 1540.51 606.584 1527.6 625.364 1516.03C630.013 1513.16 627.233 1515.17 628.274 1514.6C634.664 1511.09 643.068 1505 644.497 1504.06C678.382 1481.85 704.364 1464.65 737.662 1440.04C739.485 1438.71 753.039 1427.89 759.508 1423.67C759.937 1423.39 766.419 1419.2 771.563 1414.76C771.881 1414.48 767.919 1417.17 774.546 1412.11C781.181 1407.04 791.568 1398.68 800.691 1391.79C803.599 1389.59 810.678 1384.64 818.744 1377.45C819.299 1376.97 831.418 1365.65 836.417 1362.32C837.225 1361.78 836.968 1363.01 846.584 1354.32C848.413 1352.66 844.904 1355.45 849.774 1351.14C857.284 1344.48 867.052 1336.21 876.128 1327.64C877.694 1326.16 884.137 1319.69 889.73 1315.07C890.606 1314.34 889.186 1315.98 892.022 1313.41C905.265 1301.42 919.529 1287.6 932.499 1274.95C937.203 1270.35 935.128 1272.99 940.089 1268.16C945.074 1263.31 954.761 1253.49 959.462 1248.24C964.215 1242.95 958.303 1248.31 965.737 1240.31C997.175 1206.23 1027.52 1170.63 1052.92 1131.86C1056.54 1126.25 1053.4 1130.81 1058.88 1122.05C1079.42 1091.08 1105.86 1029.42 1097.11 997.592C1090.59 973.364 1100.25 1003.64 1094.28 985.168C1090.93 976.28 1084.03 968.944 1082.45 967.296C1067.7 951.585 1052.1 944.938 1033.38 939.52C1029.42 938.466 1033.24 939.797 1029.83 938.919C1025.63 937.864 1021.15 936.876 1016.44 936.001C1008.61 934.545 1000.74 932.839 993.275 931.115C988.082 929.903 988.884 930.328 984.237 929.156C973.097 926.308 962.944 923.316 952.25 919.744C951.276 919.417 957.969 921.222 949.811 918.644C936.55 914.428 920.263 908.416 905.271 902.665C900.836 900.954 900.31 901.351 891.115 897.109C889.176 896.192 891.934 896.75 880.798 892.492C878.911 891.819 860.292 884.188 851.735 879.409C849.457 878.165 843.743 874.775 838.578 872.228C837.876 871.884 840.536 873.559 836.272 871.409C821.465 863.921 805.983 855.37 791.202 846.777C787.238 844.468 792.975 848.196 787.074 844.733C770.808 835.194 751.094 822.49 735.993 812.009C730.425 808.147 734.424 810.599 734.031 810.299C727.745 805.454 723.597 803.206 721.43 801.709C707.972 792.363 698.169 784.684 686.217 775.46C682.922 772.904 685.081 774.943 684.412 774.45C677.504 769.308 682.84 772.896 678.61 769.468C666.807 759.871 653.718 748.925 642.186 738.765C637.955 735.031 642.486 739.479 638.698 736.12C616.107 716.052 594.002 694.195 574.325 672.145C570.661 668.028 573.164 670.441 572.438 669.55C567.491 663.485 559.403 654.87 557.663 652.858C549.631 643.638 546.965 639.974 540.202 631.39C507.475 590.304 474.059 533.188 460.804 485.027C443.155 423.005 447.509 365.641 484.067 314.828C486.409 311.646 483.768 314.656 485.812 311.914C493.814 301.358 502.056 292.543 511.913 283.633C534.662 263.112 556.064 241.476 574.691 217.328C576.795 214.575 573.442 218.461 576.918 213.854C584.063 204.366 592.182 192.256 597.922 182.095C600.768 177.034 597.265 183.974 600.086 178.887C606.396 167.411 612.243 153.773 615.492 140.659C616.851 134.977 614.521 143.436 616.217 136.108C630.439 84.611 592.034 35.3614 542.901 18.5032C539.588 17.2309 536.812 15.4646 529.469 13.3695C528.867 13.376 528.837 13.5862 528.543 13.6978C504.112 6.59638 478.455 3.90317 453.197 5.48602C403.128 8.45892 353.045 18.3833 307.85 41.0609C304.978 42.5063 310.061 40.3089 304.556 43.1102C272.641 59.5789 244.755 81.2001 219.648 108.102C217.37 110.582 217.879 109.142 212.331 115.524C211.894 116.032 211.419 116.584 210.899 117.186C209.752 118.775 198.306 130.701 195.068 133.529C194.644 133.928 197.093 132.135 193.111 135.68C169.803 156.295 140.436 171.646 111.076 180.978C106.319 182.481 111.283 180.579 107.898 181.632C83.9483 189.067 56.8235 193.919 32.8936 194.856C16.804 195.306 22.7421 194.521 14.2569 194.019C13.0219 193.984 3.2055 193.558 2.65594 193.169C1.38725 192.348 6.25887 191.843 4.32233 190.933C3.84833 190.834 -9.01198 189.766 -1.3906 190.102C-0.753656 190.189 8.55578 190.657 10.9695 190.529C12.5736 190.477 9.68537 190.104 12.9741 190.061C16.3584 190.004 19.9476 190.286 25.429 189.999C30.9117 189.646 28.5135 189.523 39.4461 188.742ZM319.052 1659.28C327.702 1656.71 328.712 1655.32 319.446 1658.61C319.004 1658.77 318.61 1659.42 319.052 1659.28ZM687.387 2513.62C678.623 2506.1 672.113 2501.66 678.194 2507.03C684.33 2512.42 690.057 2515.91 687.387 2513.62ZM784.141 2582.86C773.043 2575.17 770.442 2575.22 782.718 2582.91C783.431 2583.36 784.791 2583.3 784.141 2582.86ZM53.5546 191.701C53.4413 191.721 46.3401 192.485 46.2036 192.492C42.4675 193.231 56.6216 191.725 53.5546 191.701ZM886.85 2641C883.178 2639.01 872.236 2633.73 876.8 2636.32C880.479 2638.43 891.426 2643.52 886.85 2641ZM724.824 1452.7C724.946 1452.63 729.086 1449.66 728.951 1449.65C728.506 1449.63 722.801 1453.83 724.824 1452.7ZM1077.42 2700.42C1047.92 2696.86 1030.32 2691.74 1062.35 2697.36C1068.17 2698.27 1049.72 2695.81 1057.13 2697.07C1070.7 2699.37 1079.73 2699.63 1093.28 2701.01C1095.75 2701.32 1079.12 2700.71 1077.37 2700.42C1077.39 2700.42 1077.4 2700.42 1077.42 2700.42ZM324.371 1658.85C324.519 1658.78 331.581 1656.7 331.779 1656.66C335.527 1655.2 321.248 1659.4 324.371 1658.85ZM951.005 1261.05C951.337 1260.79 962.576 1249.12 962.875 1248.72C968.325 1242.26 945.644 1265.83 951.005 1261.05ZM303.377 2067.49C307.439 2074.1 311.902 2081.79 314.64 2087.29C310.807 2080.7 307.133 2074.27 303.377 2067.49Z" fill="#505050"/>
</svg>
