<svg width="190" height="68" viewBox="0 0 190 68" fill="none" xmlns="http://www.w3.org/2000/svg">
<path d="M0 45.6575V37.2095L5.54596 36.8871V8.77036L0 8.44792V0L10.9629 0.515905L21.9259 0V8.44792L16.3799 8.77036V36.8871L21.9259 37.2095V45.6575L10.9629 45.1416L0 45.6575Z" fill="#4EAF92"/>
<path d="M37.8343 45.3995V9.67319H26.0975V0.257952H60.405V9.67319H48.6682V45.3995H37.8343Z" fill="#4EAF92"/>
<path d="M64.6139 37.532V8.12548L72.4814 0.257952H94.7943L102.662 8.12548V37.532L94.7943 45.3995H72.4814L64.6139 37.532ZM75.8348 9.67319V35.9843H91.4409V9.67319H75.8348Z" fill="#E18C57"/>
<path d="M108.639 37.532V0.257952H119.473V35.5973H133.531V0.257952H144.365V37.532L136.498 45.3995H116.507L108.639 37.532Z" fill="#E18C57"/>
<path d="M161.415 23.9895H176.248V8.89934H161.415V23.9895ZM187.082 8.12548V24.4409L181.858 29.6645L189.661 45.3995H177.537L171.798 32.6309H161.415V45.3995H150.581V0.257952H179.214L187.082 8.12548Z" fill="#E18C57"/>
<path d="M5.84544 56.9795H6.67887V64.9713H5.84544V56.9795ZM0.844849 64.9713H0V56.9795H0.844849V64.9713ZM5.92536 61.2837H0.753514V60.5416H5.92536V61.2837Z" fill="#505050"/>
<path d="M15.9869 64.9713V63.647L15.9527 63.43V61.2152C15.9527 60.7052 15.8081 60.3132 15.5188 60.0392C15.2372 59.7652 14.8148 59.6282 14.2516 59.6282C13.8634 59.6282 13.4942 59.6929 13.1441 59.8223C12.794 59.9517 12.4972 60.123 12.2536 60.3361L11.8883 59.731C12.1927 59.4722 12.5581 59.2743 12.9843 59.1373C13.4105 58.9927 13.8596 58.9204 14.3315 58.9204C15.1078 58.9204 15.7053 59.1145 16.1239 59.5026C16.5502 59.8832 16.7633 60.4655 16.7633 61.2494V64.9713H15.9869ZM13.9205 65.0284C13.4714 65.0284 13.0794 64.9561 12.7445 64.8115C12.4172 64.6593 12.1661 64.4538 11.991 64.195C11.816 63.9286 11.7284 63.6241 11.7284 63.2816C11.7284 62.9696 11.8007 62.6879 11.9453 62.4368C12.0976 62.178 12.3411 61.9725 12.676 61.8203C13.0185 61.6604 13.4752 61.5805 14.0461 61.5805H16.1125V62.1856H14.0689C13.4904 62.1856 13.087 62.2884 12.8587 62.4939C12.638 62.6994 12.5276 62.9543 12.5276 63.2588C12.5276 63.6013 12.6608 63.8753 12.9272 64.0808C13.1936 64.2863 13.5665 64.3891 14.0461 64.3891C14.5027 64.3891 14.8947 64.2863 15.222 64.0808C15.5569 63.8677 15.8004 63.5632 15.9527 63.1674L16.1353 63.7269C15.9831 64.1227 15.7167 64.4385 15.3362 64.6745C14.9632 64.9104 14.4913 65.0284 13.9205 65.0284Z" fill="#505050"/>
<path d="M25.9425 64.2635L25.7599 64.4804V58.9775H26.5705V64.4804L26.3535 64.2635H29.6987L29.4818 64.4804V58.9775H30.2924V64.9713H22.0037V58.9775H22.8143V64.4804L22.6088 64.2635H25.9425Z" fill="#505050"/>
<path d="M41.7487 64.9713V58.9775H42.5592V64.2635H46.2241V58.9775H47.0347V64.9713H41.7487ZM47.2402 66.4213V64.9028L47.4457 64.9713H46.2241V64.2635H48.0051V66.4213H47.2402Z" fill="#505050"/>
<path d="M52.6357 64.9713V58.9775H53.4463V63.7383L57.4536 58.9775H58.1729V64.9713H57.3623V60.1991L53.3664 64.9713H52.6357Z" fill="#505050"/>
<path d="M66.9465 65.0398C66.9465 65.0398 66.9313 65.0398 66.9008 65.0398C66.8704 65.0398 66.8399 65.0398 66.8095 65.0398C66.7867 65.0398 66.7676 65.0398 66.7524 65.0398C65.565 65.0322 64.6403 64.762 63.9781 64.2292C63.3159 63.6964 62.9848 62.9391 62.9848 61.9573C62.9848 60.9906 63.3159 60.2447 63.9781 59.7196C64.6479 59.1868 65.5879 58.9166 66.7981 58.909C66.8057 58.909 66.8209 58.909 66.8437 58.909C66.8742 58.909 66.9008 58.909 66.9237 58.909C66.9465 58.909 66.9617 58.909 66.9693 58.909C68.1871 58.9166 69.1347 59.1868 69.8121 59.7196C70.4895 60.2447 70.8282 60.9906 70.8282 61.9573C70.8282 62.9467 70.4857 63.7079 69.8007 64.2406C69.1233 64.7734 68.1719 65.0398 66.9465 65.0398ZM66.9351 64.332C67.6125 64.332 68.1795 64.2406 68.6362 64.058C69.0929 63.8677 69.4392 63.5975 69.6751 63.2474C69.9111 62.8973 70.029 62.4672 70.029 61.9573C70.029 61.4625 69.9111 61.0439 69.6751 60.7014C69.4392 60.3513 69.0929 60.0849 68.6362 59.9022C68.1795 59.7196 67.6125 59.6282 66.9351 59.6282C66.9275 59.6282 66.9046 59.6282 66.8666 59.6282C66.8361 59.6282 66.8171 59.6282 66.8095 59.6282C66.1473 59.6282 65.5917 59.7234 65.1426 59.9136C64.6936 60.0963 64.3549 60.3589 64.1265 60.7014C63.8982 61.0439 63.784 61.4625 63.784 61.9573C63.784 62.4596 63.8982 62.8858 64.1265 63.236C64.3625 63.5861 64.705 63.8563 65.154 64.0466C65.6031 64.2292 66.1549 64.3244 66.8095 64.332C66.8247 64.332 66.8475 64.332 66.878 64.332C66.9084 64.332 66.9275 64.332 66.9351 64.332ZM66.5012 67.1862V56.5H67.289V67.1862H66.5012Z" fill="#505050"/>
<path d="M78.7191 65.0284C78.2015 65.0284 77.7334 64.9104 77.3148 64.6745C76.8962 64.4309 76.5613 64.0846 76.3101 63.6355C76.0665 63.1789 75.9448 62.6232 75.9448 61.9687C75.9448 61.3141 76.0665 60.7623 76.3101 60.3132C76.5537 59.8566 76.8848 59.5102 77.3034 59.2743C77.722 59.0384 78.1939 58.9204 78.7191 58.9204C79.2899 58.9204 79.7999 59.0498 80.2489 59.3086C80.7056 59.5597 81.0633 59.9175 81.3221 60.3817C81.5809 60.8384 81.7103 61.3674 81.7103 61.9687C81.7103 62.5776 81.5809 63.1104 81.3221 63.567C81.0633 64.0237 80.7056 64.3814 80.2489 64.6402C79.7999 64.899 79.2899 65.0284 78.7191 65.0284ZM75.6251 67.1862V58.9775H76.4014V60.7813L76.3215 61.9801L76.4357 63.1903V67.1862H75.6251ZM78.662 64.3091C79.0882 64.3091 79.4688 64.214 79.8037 64.0237C80.1386 63.8258 80.405 63.5518 80.6029 63.2017C80.8007 62.844 80.8997 62.433 80.8997 61.9687C80.8997 61.5044 80.8007 61.0972 80.6029 60.7471C80.405 60.397 80.1386 60.123 79.8037 59.9251C79.4688 59.7272 79.0882 59.6282 78.662 59.6282C78.2357 59.6282 77.8514 59.7272 77.5089 59.9251C77.174 60.123 76.9076 60.397 76.7097 60.7471C76.5194 61.0972 76.4243 61.5044 76.4243 61.9687C76.4243 62.433 76.5194 62.844 76.7097 63.2017C76.9076 63.5518 77.174 63.8258 77.5089 64.0237C77.8514 64.214 78.2357 64.3091 78.662 64.3091Z" fill="#505050"/>
<path d="M89.0005 65.0284C88.422 65.0284 87.9007 64.899 87.4364 64.6402C86.9797 64.3738 86.6182 64.0123 86.3518 63.5556C86.0854 63.0913 85.9522 62.5624 85.9522 61.9687C85.9522 61.3674 86.0854 60.8384 86.3518 60.3817C86.6182 59.9251 86.9797 59.5673 87.4364 59.3086C87.8931 59.0498 88.4144 58.9204 89.0005 58.9204C89.5942 58.9204 90.1194 59.0498 90.576 59.3086C91.0403 59.5673 91.4018 59.9251 91.6606 60.3817C91.927 60.8384 92.0602 61.3674 92.0602 61.9687C92.0602 62.5624 91.927 63.0913 91.6606 63.5556C91.4018 64.0123 91.0403 64.3738 90.576 64.6402C90.1117 64.899 89.5866 65.0284 89.0005 65.0284ZM89.0005 64.3091C89.4343 64.3091 89.8187 64.214 90.1536 64.0237C90.4885 63.8258 90.7511 63.5518 90.9414 63.2017C91.1393 62.844 91.2382 62.433 91.2382 61.9687C91.2382 61.4968 91.1393 61.0858 90.9414 60.7357C90.7511 60.3855 90.4885 60.1153 90.1536 59.9251C89.8187 59.7272 89.4381 59.6282 89.0119 59.6282C88.5857 59.6282 88.2051 59.7272 87.8702 59.9251C87.5353 60.1153 87.2689 60.3855 87.0711 60.7357C86.8732 61.0858 86.7742 61.4968 86.7742 61.9687C86.7742 62.433 86.8732 62.844 87.0711 63.2017C87.2689 63.5518 87.5353 63.8258 87.8702 64.0237C88.2051 64.214 88.5819 64.3091 89.0005 64.3091Z" fill="#505050"/>
<path d="M96.8752 64.9713V58.9775H99.5239C100.201 58.9775 100.734 59.1069 101.122 59.3656C101.518 59.6244 101.716 60.005 101.716 60.5073C101.716 60.9944 101.529 61.3712 101.157 61.6376C100.784 61.8964 100.293 62.0258 99.6838 62.0258L99.8436 61.786C100.559 61.786 101.084 61.9192 101.419 62.1856C101.754 62.452 101.921 62.8364 101.921 63.3387C101.921 63.8563 101.731 64.2597 101.351 64.5489C100.978 64.8305 100.395 64.9713 99.6038 64.9713H96.8752ZM97.663 64.332H99.5696C100.08 64.332 100.464 64.2521 100.723 64.0922C100.989 63.9248 101.122 63.6584 101.122 63.293C101.122 62.9277 101.004 62.6613 100.768 62.4939C100.532 62.3264 100.159 62.2427 99.6495 62.2427H97.663V64.332ZM97.663 61.6376H99.4668C99.9311 61.6376 100.285 61.5501 100.529 61.375C100.78 61.1999 100.905 60.945 100.905 60.6101C100.905 60.2752 100.78 60.024 100.529 59.8566C100.285 59.6891 99.9311 59.6054 99.4668 59.6054H97.663V61.6376Z" fill="#505050"/>
<path d="M109.37 65.0284C108.791 65.0284 108.27 64.899 107.806 64.6402C107.349 64.3738 106.987 64.0123 106.721 63.5556C106.455 63.0913 106.321 62.5624 106.321 61.9687C106.321 61.3674 106.455 60.8384 106.721 60.3817C106.987 59.9251 107.349 59.5673 107.806 59.3086C108.262 59.0498 108.784 58.9204 109.37 58.9204C109.963 58.9204 110.489 59.0498 110.945 59.3086C111.41 59.5673 111.771 59.9251 112.03 60.3817C112.296 60.8384 112.43 61.3674 112.43 61.9687C112.43 62.5624 112.296 63.0913 112.03 63.5556C111.771 64.0123 111.41 64.3738 110.945 64.6402C110.481 64.899 109.956 65.0284 109.37 65.0284ZM109.37 64.3091C109.804 64.3091 110.188 64.214 110.523 64.0237C110.858 63.8258 111.12 63.5518 111.311 63.2017C111.509 62.844 111.608 62.433 111.608 61.9687C111.608 61.4968 111.509 61.0858 111.311 60.7357C111.12 60.3855 110.858 60.1153 110.523 59.9251C110.188 59.7272 109.807 59.6282 109.381 59.6282C108.955 59.6282 108.574 59.7272 108.24 59.9251C107.905 60.1153 107.638 60.3855 107.44 60.7357C107.242 61.0858 107.144 61.4968 107.144 61.9687C107.144 62.433 107.242 62.844 107.44 63.2017C107.638 63.5518 107.905 63.8258 108.24 64.0237C108.574 64.214 108.951 64.3091 109.37 64.3091Z" fill="#505050"/>
<path d="M117.244 64.9713V58.9775H118.055V63.7383L122.062 58.9775H122.782V64.9713H121.971V60.1991L117.975 64.9713H117.244ZM119.962 58.1098C119.459 58.1098 119.052 57.9842 118.74 57.733C118.436 57.4742 118.276 57.1051 118.261 56.6256H118.843C118.85 56.93 118.957 57.1698 119.163 57.3448C119.368 57.5199 119.634 57.6074 119.962 57.6074C120.289 57.6074 120.555 57.5199 120.761 57.3448C120.974 57.1698 121.084 56.93 121.092 56.6256H121.674C121.667 57.1051 121.507 57.4742 121.195 57.733C120.883 57.9842 120.472 58.1098 119.962 58.1098Z" fill="#505050"/>
<path d="M135.4 64.9713V59.4684L135.605 59.6853H133.128V58.9775H138.482V59.6853H136.005L136.21 59.4684V64.9713H135.4Z" fill="#505050"/>
<path d="M142.839 67.2433C142.558 67.2433 142.288 67.1976 142.029 67.1063C141.778 67.0149 141.561 66.8779 141.378 66.6953L141.755 66.0902C141.907 66.2348 142.071 66.3452 142.246 66.4213C142.428 66.505 142.63 66.5469 142.851 66.5469C143.117 66.5469 143.346 66.4707 143.536 66.3185C143.734 66.1739 143.92 65.9151 144.095 65.5422L144.483 64.6631L144.575 64.5375L147.041 58.9775H147.84L144.837 65.6906C144.67 66.0788 144.483 66.387 144.278 66.6153C144.08 66.8437 143.863 67.0035 143.627 67.0949C143.391 67.1938 143.129 67.2433 142.839 67.2433ZM144.438 65.1426L141.675 58.9775H142.52L144.963 64.4804L144.438 65.1426Z" fill="#505050"/>
<path d="M155.279 65.0284C154.762 65.0284 154.294 64.9104 153.875 64.6745C153.457 64.4309 153.122 64.0846 152.87 63.6355C152.627 63.1789 152.505 62.6232 152.505 61.9687C152.505 61.3141 152.627 60.7623 152.87 60.3132C153.114 59.8566 153.445 59.5102 153.864 59.2743C154.282 59.0384 154.754 58.9204 155.279 58.9204C155.85 58.9204 156.36 59.0498 156.809 59.3086C157.266 59.5597 157.624 59.9175 157.883 60.3817C158.141 60.8384 158.271 61.3674 158.271 61.9687C158.271 62.5776 158.141 63.1104 157.883 63.567C157.624 64.0237 157.266 64.3814 156.809 64.6402C156.36 64.899 155.85 65.0284 155.279 65.0284ZM152.185 67.1862V58.9775H152.962V60.7813L152.882 61.9801L152.996 63.1903V67.1862H152.185ZM155.222 64.3091C155.649 64.3091 156.029 64.214 156.364 64.0237C156.699 63.8258 156.965 63.5518 157.163 63.2017C157.361 62.844 157.46 62.433 157.46 61.9687C157.46 61.5044 157.361 61.0972 157.163 60.7471C156.965 60.397 156.699 60.123 156.364 59.9251C156.029 59.7272 155.649 59.6282 155.222 59.6282C154.796 59.6282 154.412 59.7272 154.069 59.9251C153.734 60.123 153.468 60.397 153.27 60.7471C153.08 61.0972 152.985 61.5044 152.985 61.9687C152.985 62.433 153.08 62.844 153.27 63.2017C153.468 63.5518 153.734 63.8258 154.069 64.0237C154.412 64.214 154.796 64.3091 155.222 64.3091Z" fill="#505050"/>
<path d="M163.095 64.9713V58.9775H163.905V63.7383L167.913 58.9775H168.632V64.9713H167.821V60.1991L163.826 64.9713H163.095Z" fill="#505050"/>
<path d="M175.525 65.0398C175.091 65.0398 174.661 64.9789 174.235 64.8571C173.808 64.7354 173.432 64.5489 173.104 64.2977L173.367 63.6926C173.656 63.9057 173.991 64.0694 174.372 64.1836C174.752 64.2901 175.129 64.3434 175.502 64.3434C175.875 64.3358 176.198 64.2825 176.472 64.1836C176.746 64.0846 176.96 63.9476 177.112 63.7725C177.264 63.5975 177.34 63.3996 177.34 63.1789C177.34 62.8592 177.195 62.6118 176.906 62.4368C176.617 62.2541 176.221 62.1628 175.719 62.1628H174.691V61.5691H175.662C175.959 61.5691 176.221 61.531 176.45 61.4549C176.678 61.3788 176.853 61.2684 176.975 61.1238C177.104 60.9792 177.169 60.808 177.169 60.6101C177.169 60.397 177.093 60.2143 176.94 60.0621C176.796 59.9098 176.594 59.7957 176.335 59.7196C176.077 59.6434 175.784 59.6054 175.456 59.6054C175.159 59.613 174.851 59.6587 174.532 59.7424C174.212 59.8185 173.896 59.9365 173.584 60.0963L173.356 59.4684C173.706 59.2857 174.052 59.1487 174.395 59.0574C174.745 58.9584 175.095 58.909 175.445 58.909C175.924 58.8937 176.354 58.9508 176.735 59.0802C177.123 59.2096 177.431 59.3961 177.66 59.6396C177.888 59.8756 178.002 60.161 178.002 60.4959C178.002 60.7927 177.911 61.0515 177.728 61.2723C177.546 61.493 177.302 61.6642 176.998 61.786C176.693 61.9078 176.347 61.9687 175.959 61.9687L175.993 61.7518C176.678 61.7518 177.211 61.885 177.591 62.1514C177.979 62.4177 178.174 62.7793 178.174 63.236C178.174 63.5937 178.056 63.9096 177.82 64.1836C177.584 64.4499 177.264 64.6593 176.861 64.8115C176.465 64.9637 176.02 65.0398 175.525 65.0398Z" fill="#505050"/>
<path d="M183.096 64.9713V58.9775H183.918L186.635 63.5785H186.293L189.056 58.9775H189.809V64.9713H189.067V59.9022L189.216 59.9707L186.635 64.2406H186.27L183.667 59.9251L183.838 59.8908V64.9713H183.096Z" fill="#505050"/>
</svg>
