<svg width="252" height="67" viewBox="0 0 252 67" fill="none" xmlns="http://www.w3.org/2000/svg">
<path d="M8.18699 35V9.5H0.186987V0H27.187V9.5H19.187V35H8.18699Z" fill="#4EAF92"/>
<path d="M30.1909 35V0H55.1909V9H41.1909V13H52.6909V21.5H41.1909V26H55.6909V35H30.1909Z" fill="#4EAF92"/>
<path d="M57.1948 35L64.1948 16.5L57.9448 0H69.6948L72.9448 12H74.4448L77.6948 0H89.4448L83.1948 16.5L90.1948 35H78.2948L74.6948 22H72.6948L69.0948 35H57.1948Z" fill="#4EAF92"/>
<path d="M92.2026 35V0H103.203V12H109.703V0H120.703V35H109.703V22H103.203V35H92.2026Z" fill="#4EAF92"/>
<path d="M124.472 27.5V7.5L131.972 0H147.472L154.972 7.5V27.5L147.472 35H131.972L124.472 27.5ZM135.972 9.5V25.5H143.472V9.5H135.972Z" fill="#4EAF92"/>
<path d="M158.707 35V0H181.707V10H169.707V35H158.707Z" fill="#E18C57"/>
<path d="M214.195 35H203.445V16.75L193.195 35H184.195V0H194.945V18.25L205.195 0H214.195V35Z" fill="#E18C57"/>
<path d="M216.929 42V25.5H219.929L225.529 0H248.429V25.5H251.429V42H243.429V35H224.929V42H216.929ZM231.079 26.5H237.429V8.5H233.929L231.079 26.5Z" fill="#E18C57"/>
<path d="M0 64V48.3722H1.1386V55.5386H5.15719V56.5879H1.1386V64H0ZM12.3237 64.1116C11.2223 64.1116 10.2028 63.9181 9.26508 63.5312C8.32741 63.1293 7.50881 62.5712 6.80928 61.8568C6.12463 61.1423 5.58882 60.3089 5.20184 59.3563C4.81487 58.3889 4.62138 57.3321 4.62138 56.1861C4.62138 55.04 4.81487 53.9907 5.20184 53.0382C5.58882 52.0707 6.12463 51.2298 6.80928 50.5154C7.50881 49.801 8.32741 49.2503 9.26508 48.8633C10.2028 48.4615 11.2223 48.2605 12.3237 48.2605C13.4102 48.2605 14.4223 48.4615 15.3599 48.8633C16.3125 49.2503 17.1311 49.801 17.8158 50.5154C18.5153 51.2298 19.0585 52.0707 19.4455 53.0382C19.8325 53.9907 20.026 55.04 20.026 56.1861C20.026 57.3321 19.8325 58.3889 19.4455 59.3563C19.0585 60.3089 18.5153 61.1423 17.8158 61.8568C17.1311 62.5712 16.3125 63.1293 15.3599 63.5312C14.4223 63.9181 13.4102 64.1116 12.3237 64.1116ZM12.3237 63.0623C13.2465 63.0623 14.1023 62.8912 14.8911 62.5488C15.6948 62.2065 16.3944 61.7302 16.9897 61.12C17.5851 60.4949 18.0464 59.7656 18.3739 58.9321C18.7013 58.0986 18.8651 57.1833 18.8651 56.1861C18.8651 55.1889 18.7013 54.2735 18.3739 53.44C18.0464 52.6066 17.5851 51.8847 16.9897 51.2745C16.3944 50.6493 15.6948 50.1656 14.8911 49.8233C14.1023 49.481 13.2465 49.3098 12.3237 49.3098C11.4009 49.3098 10.5376 49.481 9.73392 49.8233C8.94509 50.1656 8.25299 50.6493 7.65765 51.2745C7.07718 51.8847 6.61579 52.6066 6.27347 53.44C5.94603 54.2735 5.78231 55.1889 5.78231 56.1861C5.78231 57.1833 5.94603 58.0986 6.27347 58.9321C6.61579 59.7656 7.07718 60.4949 7.65765 61.12C8.25299 61.7302 8.94509 62.2065 9.73392 62.5488C10.5376 62.8912 11.4009 63.0623 12.3237 63.0623Z" fill="#505050"/>
<path d="M37.3991 64L33.2019 58.173L34.1395 57.6372L38.7386 64H37.3991ZM30.3888 58.5972V57.6372H34.0056V58.5972H30.3888ZM34.2288 58.2847L33.1795 58.1061L37.1758 52.3461H38.4037L34.2288 58.2847ZM23.0438 64H21.6819L26.3033 57.6372L27.2409 58.173L23.0438 64ZM30.7684 64H29.6521V52.3461H30.7684V64ZM30.0093 58.5972H26.4149V57.6372H30.0093V58.5972ZM26.214 58.2847L22.0391 52.3461H23.267L27.2633 58.1061L26.214 58.2847Z" fill="#505050"/>
<path d="M41.6329 64V52.3461H42.7492V57.6596H50.6524V52.3461H51.7687V64H50.6524V58.6419H42.7492V64H41.6329Z" fill="#505050"/>
<path d="M61.2329 64.0893C60.1166 64.0893 59.1194 63.8363 58.2413 63.3302C57.3781 62.8242 56.686 62.1247 56.165 61.2316C55.659 60.3386 55.406 59.3191 55.406 58.173C55.406 57.0121 55.659 55.9926 56.165 55.1145C56.686 54.2214 57.3781 53.5219 58.2413 53.0159C59.1194 52.5098 60.1166 52.2568 61.2329 52.2568C62.3492 52.2568 63.3464 52.5098 64.2245 53.0159C65.1027 53.5219 65.7948 54.2214 66.3008 55.1145C66.8069 55.9926 67.0599 57.0121 67.0599 58.173C67.0599 59.3191 66.8069 60.3386 66.3008 61.2316C65.7948 62.1247 65.1027 62.8242 64.2245 63.3302C63.3464 63.8363 62.3492 64.0893 61.2329 64.0893ZM61.2329 63.0847C62.1259 63.0847 62.9297 62.8837 63.6441 62.4819C64.3585 62.0651 64.9166 61.4847 65.3185 60.7405C65.7203 59.9963 65.9213 59.1405 65.9213 58.173C65.9213 57.1907 65.7203 56.3349 65.3185 55.6056C64.9166 54.8614 64.3585 54.2884 63.6441 53.8866C62.9297 53.4698 62.1259 53.2614 61.2329 53.2614C60.3399 53.2614 59.5362 53.4698 58.8218 53.8866C58.1222 54.2884 57.5641 54.8614 57.1474 55.6056C56.7455 56.3349 56.5446 57.1907 56.5446 58.173C56.5446 59.1405 56.7455 59.9963 57.1474 60.7405C57.5641 61.4847 58.1222 62.0651 58.8218 62.4819C59.5362 62.8837 60.3399 63.0847 61.2329 63.0847Z" fill="#505050"/>
<path d="M70.6953 64V52.3461H78.6655V53.3507H71.499L71.8115 53.0382V64H70.6953Z" fill="#505050"/>
<path d="M85.15 64.0893C84.0337 64.0893 83.0365 63.8363 82.1584 63.3302C81.2951 62.8242 80.603 62.1247 80.0821 61.2316C79.5761 60.3386 79.323 59.3191 79.323 58.173C79.323 57.0121 79.5761 55.9926 80.0821 55.1145C80.603 54.2214 81.2951 53.5219 82.1584 53.0159C83.0365 52.5098 84.0337 52.2568 85.15 52.2568C86.2663 52.2568 87.2635 52.5098 88.1416 53.0159C89.0197 53.5219 89.7118 54.2214 90.2179 55.1145C90.7239 55.9926 90.9769 57.0121 90.9769 58.173C90.9769 59.3191 90.7239 60.3386 90.2179 61.2316C89.7118 62.1247 89.0197 62.8242 88.1416 63.3302C87.2635 63.8363 86.2663 64.0893 85.15 64.0893ZM85.15 63.0847C86.043 63.0847 86.8467 62.8837 87.5611 62.4819C88.2756 62.0651 88.8337 61.4847 89.2356 60.7405C89.6374 59.9963 89.8383 59.1405 89.8383 58.173C89.8383 57.1907 89.6374 56.3349 89.2356 55.6056C88.8337 54.8614 88.2756 54.2884 87.5611 53.8866C86.8467 53.4698 86.043 53.2614 85.15 53.2614C84.257 53.2614 83.4532 53.4698 82.7388 53.8866C82.0393 54.2884 81.4812 54.8614 81.0644 55.6056C80.6626 56.3349 80.4616 57.1907 80.4616 58.173C80.4616 59.1405 80.6626 59.9963 81.0644 60.7405C81.4812 61.4847 82.0393 62.0651 82.7388 62.4819C83.4532 62.8837 84.257 63.0847 85.15 63.0847Z" fill="#505050"/>
<path d="M100.748 64V48.3722H113.608V64H112.469V49.0419L112.804 49.3991H101.552L101.887 49.0419V64H100.748Z" fill="#505050"/>
<path d="M123.478 64.0893C122.362 64.0893 121.365 63.8363 120.487 63.3302C119.623 62.8242 118.931 62.1247 118.41 61.2316C117.904 60.3386 117.651 59.3191 117.651 58.173C117.651 57.0121 117.904 55.9926 118.41 55.1145C118.931 54.2214 119.623 53.5219 120.487 53.0159C121.365 52.5098 122.362 52.2568 123.478 52.2568C124.595 52.2568 125.592 52.5098 126.47 53.0159C127.348 53.5219 128.04 54.2214 128.546 55.1145C129.052 55.9926 129.305 57.0121 129.305 58.173C129.305 59.3191 129.052 60.3386 128.546 61.2316C128.04 62.1247 127.348 62.8242 126.47 63.3302C125.592 63.8363 124.595 64.0893 123.478 64.0893ZM123.478 63.0847C124.371 63.0847 125.175 62.8837 125.889 62.4819C126.604 62.0651 127.162 61.4847 127.564 60.7405C127.966 59.9963 128.167 59.1405 128.167 58.173C128.167 57.1907 127.966 56.3349 127.564 55.6056C127.162 54.8614 126.604 54.2884 125.889 53.8866C125.175 53.4698 124.371 53.2614 123.478 53.2614C122.585 53.2614 121.782 53.4698 121.067 53.8866C120.368 54.2884 119.81 54.8614 119.393 55.6056C118.991 56.3349 118.79 57.1907 118.79 58.173C118.79 59.1405 118.991 59.9963 119.393 60.7405C119.81 61.4847 120.368 62.0651 121.067 62.4819C121.782 62.8837 122.585 63.0847 123.478 63.0847Z" fill="#505050"/>
<path d="M140.867 63.4642V53.3507H134.795L134.661 56.2531C134.631 57.0717 134.579 57.8903 134.505 58.7089C134.43 59.5126 134.311 60.2568 134.147 60.9414C133.984 61.6112 133.753 62.1544 133.455 62.5712C133.172 62.9879 132.8 63.2186 132.339 63.2633L131.223 63.0177C131.699 63.0474 132.086 62.8763 132.384 62.5042C132.681 62.1172 132.912 61.5963 133.076 60.9414C133.239 60.2865 133.358 59.5498 133.433 58.7312C133.522 57.8977 133.589 57.0493 133.634 56.1861L133.79 52.3461H141.984V63.4642H140.867ZM130.709 66.9023V63.0177H143.859V66.9023H142.81V64H131.781V66.9023H130.709Z" fill="#505050"/>
<path d="M147.156 64V52.3461H148.25L153.764 61.5665H153.273L158.81 52.3461H159.837V64H158.81V53.6856L159.033 53.7749L153.742 62.5042H153.228L147.915 53.7079L148.183 53.6633V64H147.156Z" fill="#505050"/>
<path d="M169.307 64.0893C168.19 64.0893 167.193 63.8363 166.315 63.3302C165.452 62.8242 164.76 62.1247 164.239 61.2316C163.733 60.3386 163.48 59.3191 163.48 58.173C163.48 57.0121 163.733 55.9926 164.239 55.1145C164.76 54.2214 165.452 53.5219 166.315 53.0159C167.193 52.5098 168.19 52.2568 169.307 52.2568C170.423 52.2568 171.42 52.5098 172.298 53.0159C173.176 53.5219 173.869 54.2214 174.375 55.1145C174.881 55.9926 175.134 57.0121 175.134 58.173C175.134 59.3191 174.881 60.3386 174.375 61.2316C173.869 62.1247 173.176 62.8242 172.298 63.3302C171.42 63.8363 170.423 64.0893 169.307 64.0893ZM169.307 63.0847C170.2 63.0847 171.003 62.8837 171.718 62.4819C172.432 62.0651 172.99 61.4847 173.392 60.7405C173.794 59.9963 173.995 59.1405 173.995 58.173C173.995 57.1907 173.794 56.3349 173.392 55.6056C172.99 54.8614 172.432 54.2884 171.718 53.8866C171.003 53.4698 170.2 53.2614 169.307 53.2614C168.414 53.2614 167.61 53.4698 166.896 53.8866C166.196 54.2884 165.638 54.8614 165.221 55.6056C164.819 56.3349 164.618 57.1907 164.618 58.173C164.618 59.1405 164.819 59.9963 165.221 60.7405C165.638 61.4847 166.196 62.0651 166.896 62.4819C167.61 62.8837 168.414 63.0847 169.307 63.0847Z" fill="#505050"/>
<path d="M183.48 64.0893C182.349 64.0893 181.336 63.8363 180.443 63.3302C179.565 62.8242 178.866 62.1247 178.345 61.2316C177.839 60.3386 177.586 59.3191 177.586 58.173C177.586 57.0121 177.839 55.9851 178.345 55.0921C178.866 54.1991 179.565 53.507 180.443 53.0159C181.336 52.5098 182.349 52.2568 183.48 52.2568C184.417 52.2568 185.266 52.4354 186.025 52.7926C186.799 53.1498 187.424 53.6856 187.9 54.4L187.074 55.0028C186.657 54.4075 186.136 53.9684 185.511 53.6856C184.886 53.4028 184.209 53.2614 183.48 53.2614C182.572 53.2614 181.753 53.4698 181.024 53.8866C180.309 54.2884 179.744 54.8614 179.327 55.6056C178.925 56.3349 178.724 57.1907 178.724 58.173C178.724 59.1554 178.925 60.0186 179.327 60.7628C179.744 61.4921 180.309 62.0651 181.024 62.4819C181.753 62.8837 182.572 63.0847 183.48 63.0847C184.209 63.0847 184.886 62.9433 185.511 62.6605C186.136 62.3777 186.657 61.9386 187.074 61.3433L187.9 61.9461C187.424 62.6605 186.799 63.1963 186.025 63.5535C185.266 63.9107 184.417 64.0893 183.48 64.0893Z" fill="#505050"/>
<path d="M199.792 64L194.791 58.173L195.728 57.6372L201.131 64H199.792ZM191.196 64V52.3461H192.313V64H191.196ZM191.955 58.5972V57.6372H195.617V58.5972H191.955ZM195.795 58.2847L194.768 58.1061L199.546 52.3461H200.774L195.795 58.2847Z" fill="#505050"/>
<path d="M208.115 64.0893C206.998 64.0893 206.001 63.8363 205.123 63.3302C204.26 62.8242 203.568 62.1247 203.047 61.2316C202.541 60.3386 202.288 59.3191 202.288 58.173C202.288 57.0121 202.541 55.9926 203.047 55.1145C203.568 54.2214 204.26 53.5219 205.123 53.0159C206.001 52.5098 206.998 52.2568 208.115 52.2568C209.231 52.2568 210.228 52.5098 211.106 53.0159C211.984 53.5219 212.677 54.2214 213.183 55.1145C213.689 55.9926 213.942 57.0121 213.942 58.173C213.942 59.3191 213.689 60.3386 213.183 61.2316C212.677 62.1247 211.984 62.8242 211.106 63.3302C210.228 63.8363 209.231 64.0893 208.115 64.0893ZM208.115 63.0847C209.008 63.0847 209.811 62.8837 210.526 62.4819C211.24 62.0651 211.798 61.4847 212.2 60.7405C212.602 59.9963 212.803 59.1405 212.803 58.173C212.803 57.1907 212.602 56.3349 212.2 55.6056C211.798 54.8614 211.24 54.2884 210.526 53.8866C209.811 53.4698 209.008 53.2614 208.115 53.2614C207.222 53.2614 206.418 53.4698 205.704 53.8866C205.004 54.2884 204.446 54.8614 204.029 55.6056C203.627 56.3349 203.426 57.1907 203.426 58.173C203.426 59.1405 203.627 59.9963 204.029 60.7405C204.446 61.4847 205.004 62.0651 205.704 62.4819C206.418 62.8837 207.222 63.0847 208.115 63.0847Z" fill="#505050"/>
<path d="M217.577 64V52.3461H222.489C223.769 52.3461 224.781 52.5991 225.525 53.1052C226.269 53.6112 226.641 54.3479 226.641 55.3154C226.641 56.2679 226.277 56.9898 225.547 57.481C224.833 57.9721 223.903 58.2177 222.757 58.2177L223.069 57.8828C224.438 57.8828 225.443 58.1358 226.083 58.6419C226.723 59.1479 227.043 59.8921 227.043 60.8744C227.043 61.8716 226.678 62.6456 225.949 63.1963C225.235 63.7321 224.126 64 222.623 64H217.577ZM218.671 63.0847H222.6C223.687 63.0847 224.513 62.9061 225.078 62.5488C225.644 62.1916 225.927 61.6186 225.927 60.8298C225.927 60.0261 225.674 59.4456 225.168 59.0884C224.677 58.7163 223.88 58.5303 222.779 58.5303H218.671V63.0847ZM218.671 57.6596H222.422C223.404 57.6596 224.163 57.4735 224.699 57.1014C225.25 56.7293 225.525 56.1786 225.525 55.4493C225.525 54.72 225.25 54.1768 224.699 53.8196C224.163 53.4475 223.404 53.2614 222.422 53.2614H218.671V57.6596Z" fill="#505050"/>
<path d="M235.673 56.5879C237.117 56.6028 238.218 56.9228 238.977 57.5479C239.736 58.1582 240.116 59.0586 240.116 60.2493C240.116 61.4847 239.714 62.4298 238.91 63.0847C238.107 63.7395 236.938 64.0595 235.405 64.0447L231.007 64V52.3461H232.123V56.5433L235.673 56.5879ZM235.383 63.1516C236.574 63.1665 237.467 62.9284 238.062 62.4372C238.672 61.9461 238.977 61.2168 238.977 60.2493C238.977 59.3116 238.68 58.6121 238.084 58.1507C237.489 57.6893 236.589 57.4512 235.383 57.4363L232.123 57.414V63.107L235.383 63.1516Z" fill="#505050"/>
<path d="M250.044 64V59.7135L250.289 59.9814H246.159C244.7 59.9814 243.562 59.6689 242.743 59.0437C241.939 58.4037 241.538 57.4661 241.538 56.2307C241.538 54.921 241.977 53.9461 242.855 53.3061C243.733 52.6661 244.894 52.3461 246.337 52.3461H251.071V64H250.044ZM241.471 64L244.708 59.5126H245.891L242.698 64H241.471ZM250.044 59.4009V52.9935L250.289 53.3284H246.404C245.214 53.3284 244.291 53.5591 243.636 54.0205C242.981 54.4819 242.654 55.2335 242.654 56.2754C242.654 58.1805 243.859 59.133 246.271 59.133H250.289L250.044 59.4009Z" fill="#505050"/>
</svg>
