<svg width="130" height="215" viewBox="0 0 130 215" fill="none" xmlns="http://www.w3.org/2000/svg">
<path opacity="0.3" d="M91.2971 200.321L92.7151 203.521V203.521L91.2971 200.321ZM67.0672 211.058L68.4852 214.258V214.258L67.0672 211.058ZM62.9327 211.058L61.5147 214.258H61.5147L62.9327 211.058ZM38.7028 200.321L37.2848 203.521V203.521L38.7028 200.321ZM91.625 158.863L89.3896 161.556L91.625 158.863ZM55.2915 167.782C53.3585 167.782 51.7915 169.349 51.7915 171.282C51.7915 173.215 53.3585 174.782 55.2915 174.782V171.282V167.782ZM48.1306 183.562C50.0636 183.562 51.6306 181.995 51.6306 180.062C51.6306 178.129 50.0636 176.562 48.1306 176.562V180.062V183.562ZM65.4361 185.334C63.5031 185.334 61.9361 186.901 61.9361 188.834C61.9361 190.767 63.5031 192.334 65.4361 192.334V188.834V185.334ZM68.4986 52.4179C70.4316 52.4179 71.9986 50.8509 71.9986 48.9179C71.9986 46.9849 70.4316 45.4179 68.4986 45.4179V48.9179V52.4179ZM65.6304 154.432C65.6304 156.365 67.1974 157.932 69.1304 157.932C71.0633 157.932 72.6304 156.365 72.6304 154.432H69.1304H65.6304ZM69.1304 107.665L69.1134 104.165L69.1304 107.665ZM69.1304 95.4233L69.1134 98.9233L69.1304 95.4233ZM69.1304 84.4124L69.1546 87.9123L69.1304 84.4124ZM69.1304 130.919H72.6304C72.6304 128.986 71.0633 127.419 69.1304 127.419V130.919ZM3.5 63.7963H7C7 32.4935 32.9019 7 65 7V3.5V0C29.167 0 0 28.4977 0 63.7963H3.5ZM65 3.5V7C97.0981 7 123 32.4935 123 63.7963H126.5H130C130 28.4977 100.833 0 65 0V3.5ZM25.7541 118.746H29.2541C29.2541 107.47 22.9619 98.4326 17.5478 90.2331C11.9345 81.7319 7 73.8298 7 63.7963H3.5H0C0 76.1967 6.1926 85.7398 11.7063 94.0902C17.4193 102.742 22.2541 109.963 22.2541 118.746H25.7541ZM126.5 63.7963H123C123 73.8427 118.052 81.9322 112.443 90.5169C107.053 98.7658 100.746 107.825 100.746 118.746H104.246H107.746C107.746 110.327 112.565 103.128 118.303 94.3456C123.821 85.8991 130 76.1837 130 63.7963H126.5ZM91.2971 200.321L89.8792 197.121L65.6492 207.858L67.0672 211.058L68.4852 214.258L92.7151 203.521L91.2971 200.321ZM62.9327 211.058L64.3507 207.858L40.1208 197.121L38.7028 200.321L37.2848 203.521L61.5147 214.258L62.9327 211.058ZM67.0672 211.058L65.6492 207.858C65.2229 208.047 64.7771 208.047 64.3507 207.858L62.9327 211.058L61.5147 214.258C63.7471 215.247 66.2529 215.247 68.4852 214.258L67.0672 211.058ZM35.0831 194.304H31.5831C31.5831 198.148 33.6618 201.915 37.2848 203.521L38.7028 200.321L40.1208 197.121C39.3783 196.792 38.5831 195.782 38.5831 194.304H35.0831ZM94.9169 194.304H91.4169C91.4169 195.782 90.6216 196.792 89.8791 197.121L91.2971 200.321L92.7151 203.521C96.3381 201.915 98.4169 198.148 98.4169 194.304H94.9169ZM85.6238 156.708V153.208H44.3761V156.708V160.208H85.6238V156.708ZM85.6238 156.708V160.208C87.0721 160.208 88.3809 160.719 89.3896 161.556L91.625 158.863L93.8604 156.17C91.6309 154.319 88.7507 153.208 85.6238 153.208V156.708ZM91.625 158.863L89.3896 161.556C90.6475 162.6 91.4169 164.129 91.4169 165.82H94.9169H98.4169C98.4169 161.932 96.6297 158.468 93.8604 156.17L91.625 158.863ZM104.246 118.746H100.746C100.746 137.813 95.8331 149.523 89.1172 156.421L91.625 158.863L94.1328 161.304C102.529 152.68 107.746 138.953 107.746 118.746H104.246ZM35.0831 165.82H38.5831C38.5831 164.129 39.3522 162.6 40.6097 161.556L38.3739 158.864L36.1381 156.171C33.3697 158.469 31.5831 161.932 31.5831 165.82H35.0831ZM38.3739 158.864L40.6097 161.556C41.6185 160.719 42.9275 160.208 44.3761 160.208V156.708V153.208C41.2486 153.208 38.3678 154.32 36.1381 156.171L38.3739 158.864ZM38.3739 158.864L40.8818 156.422C34.1664 149.524 29.2541 137.814 29.2541 118.746H25.7541H22.2541C22.2541 138.954 27.4701 152.681 35.866 161.305L38.3739 158.864ZM94.9169 165.82H91.4169V171.282H94.9169H98.4169V165.82H94.9169ZM94.9169 171.282V167.782H55.2915V171.282V174.782H94.9169V171.282ZM35.0831 194.304H38.5831V180.062H35.0831H31.5831V194.304H35.0831ZM35.0831 180.062H38.5831V165.82H35.0831H31.5831V180.062H35.0831ZM35.0831 180.062V183.562H48.1306V180.062V176.562H35.0831V180.062ZM94.9169 171.282H91.4169V188.834H94.9169H98.4169V171.282H94.9169ZM94.9169 188.834H91.4169V194.304H94.9169H98.4169V188.834H94.9169ZM94.9169 188.834V185.334H65.4361V188.834V192.334H94.9169V188.834ZM39.8669 66.6662H43.3669C43.3669 63.4214 45.4999 59.9407 50.097 57.0911C54.6409 54.2743 61.1379 52.4179 68.4986 52.4179V48.9179V45.4179C60.0465 45.4179 52.2276 47.5345 46.4089 51.1414C40.6433 54.7154 36.3669 60.1089 36.3669 66.6662H39.8669ZM68.4986 130.919V127.419C61.1379 127.419 54.6409 125.562 50.097 122.745C45.4999 119.896 43.3669 116.415 43.3669 113.17H39.8669H36.3669C36.3669 119.727 40.6433 125.121 46.4089 128.695C52.2276 132.302 60.0465 134.419 68.4986 134.419V130.919ZM68.4986 72.1698V75.6698C72.709 75.6698 77.8417 75.9769 81.8275 76.8246C83.8509 77.255 85.3119 77.7711 86.182 78.2873C87.0909 78.8264 86.6331 78.8885 86.6331 78.2922H90.1331H93.6331C93.6331 75.2561 91.5509 73.3331 89.7531 72.2667C87.9167 71.1774 85.5889 70.468 83.2837 69.9777C78.612 68.9841 72.9275 68.6698 68.4986 68.6698V72.1698ZM39.8669 89.9182H43.3669C43.3669 86.9683 45.1136 83.8443 48.8988 81.1401L46.8642 78.2922L44.8296 75.4443C39.8965 78.9687 36.3669 83.9744 36.3669 89.9182H39.8669ZM46.8642 78.2922L48.8988 81.1401C53.4454 77.8919 60.4419 75.6698 68.4986 75.6698V72.1698V68.6698C59.2769 68.6698 50.7823 71.1915 44.8296 75.4443L46.8642 78.2922ZM68.4986 84.4146V80.9146C60.4419 80.9146 53.4454 78.6926 48.8988 75.4443L46.8642 78.2922L44.8296 81.1401C50.7823 85.3929 59.2769 87.9146 68.4986 87.9146V84.4146ZM46.8642 78.2922L48.8988 75.4443C45.1136 72.7401 43.3669 69.6161 43.3669 66.6662H39.8669H36.3669C36.3669 72.61 39.8965 77.6158 44.8296 81.1401L46.8642 78.2922ZM39.8669 113.17H43.3669C43.3669 110.22 45.1136 107.096 48.8988 104.392L46.8642 101.544L44.8296 98.6963C39.8965 102.221 36.3669 107.226 36.3669 113.17H39.8669ZM46.8642 101.544L48.8988 104.392C53.4454 101.144 60.4419 98.9218 68.4986 98.9218V95.4218V91.9218C59.2769 91.9218 50.7823 94.4435 44.8296 98.6963L46.8642 101.544ZM68.4986 107.667V104.167C60.4419 104.167 53.4454 101.945 48.8988 98.6963L46.8642 101.544L44.8296 104.392C50.7823 108.645 59.2769 111.167 68.4986 111.167V107.667ZM46.8642 101.544L48.8988 98.6963C45.1136 95.9921 43.3669 92.8681 43.3669 89.9182H39.8669H36.3669C36.3669 95.862 39.8965 100.868 44.8296 104.392L46.8642 101.544ZM90.1331 101.544H86.6331C86.6331 101.163 86.9471 101.237 86.2052 101.702C85.4245 102.192 84.0773 102.687 82.1433 103.096C78.3318 103.901 73.3723 104.144 69.1134 104.165L69.1304 107.665L69.1473 111.165C73.5145 111.144 79.0564 110.902 83.5897 109.945C85.8281 109.472 88.1142 108.767 89.9237 107.633C91.772 106.474 93.6331 104.501 93.6331 101.544H90.1331ZM69.1304 107.665L69.1134 104.165C68.9064 104.166 68.7014 104.167 68.4986 104.167V107.667V111.167C68.7122 111.167 68.9285 111.166 69.1473 111.165L69.1304 107.665ZM68.4986 95.4218V98.9218C68.7014 98.9218 68.9064 98.9223 69.1134 98.9233L69.1304 95.4233L69.1473 91.9234C68.9285 91.9223 68.7122 91.9218 68.4986 91.9218V95.4218ZM69.1304 95.4233L69.1134 98.9233C73.3723 98.9439 78.3318 99.1874 82.1433 99.9924C84.0774 100.401 85.4245 100.897 86.2052 101.386C86.9471 101.851 86.6331 101.926 86.6331 101.544H90.1331H93.6331C93.6331 98.5872 91.772 96.6143 89.9237 95.4554C88.1142 94.3209 85.8281 93.6162 83.5897 93.1435C79.0564 92.1861 73.5145 91.9445 69.1473 91.9234L69.1304 95.4233ZM90.1331 78.2922H86.6331C86.6331 77.7127 87.0716 77.7534 86.2379 78.2635C85.4276 78.7592 84.0485 79.2676 82.1072 79.699C78.2836 80.5488 73.3137 80.8833 69.1061 80.9125L69.1304 84.4124L69.1546 87.9123C73.5731 87.8817 79.1046 87.5371 83.6258 86.5323C85.8569 86.0364 88.1111 85.3236 89.891 84.2347C91.6475 83.1601 93.6331 81.2528 93.6331 78.2922H90.1331ZM69.1304 84.4124L69.1061 80.9125C68.9012 80.9139 68.6987 80.9146 68.4986 80.9146V84.4146V87.9146C68.7149 87.9146 68.9336 87.9138 69.1546 87.9123L69.1304 84.4124ZM69.1304 154.432H72.6304V130.919H69.1304H65.6304V154.432H69.1304ZM68.4986 130.919V134.419H69.1304V130.919V127.419H68.4986V130.919Z" fill="#505050"/>
</svg>
