<svg width="143" height="186" viewBox="0 0 143 186" fill="none" xmlns="http://www.w3.org/2000/svg">
<path opacity="0.3" d="M53.2319 21.6705L26.6939 10.5533L26.1597 12.1562M53.2319 21.6705V33.3623M53.2319 21.6705L74.6238 29.6252M53.2319 33.3623L22.9889 21.6705L23.7336 19.4362M53.2319 33.3623V49.825H62.8912M23.7336 19.4362L3.00049 10.5533L5.03235 3L26.1597 12.1562M23.7336 19.4362L26.1597 12.1562M62.8912 49.825L41.4994 71.985H45.36M62.8912 49.825L82.6504 71.985H78.5209M62.8912 49.825H74.6238V29.6252M45.36 71.985V85.3975H48.0959M45.36 71.985H59.4862M59.4862 71.985V85.3975H57.8026M59.4862 71.985H64.3947M48.0959 85.3975V101.809H57.8026V85.3975M48.0959 85.3975H57.8026M67.1306 85.3974H64.3947V71.985M67.1306 85.3974V101.809H76.8373V85.3974M67.1306 85.3974H76.8373M76.8373 85.3974H78.5209V71.985M78.5209 71.985H64.3947M74.6238 29.6252L140 53.9364V173.332M44.4968 134.055V125.041H107.972V173.332M107.972 173.332H44.4968V183H107.972H140V173.332M107.972 173.332H140" stroke="#505050" stroke-width="6" stroke-linecap="round" stroke-linejoin="round"/>
</svg>
