<svg width="1038" height="2646" viewBox="0 0 1038 2646" fill="none" xmlns="http://www.w3.org/2000/svg">
<path opacity="0.2" d="M8.68245 23.675C26.1912 36.3583 52.2622 48.4217 73.204 53.7785C79.7147 55.4746 76.3526 54.8276 80.9236 55.9199C89.8149 57.9535 98.2564 59.1544 107.284 60.0399C110.236 60.3167 106.527 60.3086 109.635 60.5805C126.806 61.9875 143.252 61.1357 160.495 58.4036C173.131 56.384 185.568 53.2958 197.742 49.291C232.47 37.9558 273.242 31.3412 306.914 50.9449C340.43 70.7719 354.936 109.375 362.688 145.775C368.799 174.361 371.038 209.926 371.444 240.005C371.497 243.553 371.731 241.436 371.76 242.111C372.148 252.539 371.604 249.061 371.507 255.939C371.225 272.558 370.531 290.348 369.558 307.658C368.924 318.932 368.933 329.641 369.425 339.455C370.077 350.231 369.88 339.28 370.396 350.306C370.443 351.098 369.928 348.252 370.162 351.354C370.632 358.428 372.498 371.345 373.484 376.463C375.316 386.29 375.735 388.113 378.194 397.559C381.619 410.42 386.761 425.18 392.897 438.117C394.2 440.853 392.733 437.115 394.857 441.446C396.921 445.798 402.976 457.042 405.207 460.765C407.372 464.507 406.243 463.04 406.594 463.722C409.414 469.392 418.376 481.289 419.569 482.747C440.457 510.564 462.189 531.509 487.975 551.635C507.563 566.846 530.006 581.221 550.585 593.055C574.992 607.068 596.373 617.927 621.323 629.434C623.965 630.646 621.007 628.925 624.236 630.401C658.352 645.954 693.058 659.922 727.885 673.574C731.368 674.939 726.765 673.479 730.238 674.857C751.665 683.36 785.538 696.671 798.65 700.319C813.16 705.874 830.845 712.736 843.65 718.106C852.033 721.627 843.751 718.646 854.097 722.663C856.418 723.571 853.521 722.098 856.989 723.479C871.277 729.166 887.638 736.204 901.437 742.37C904.249 743.626 903.605 743.061 904.45 743.4C911.699 746.314 922.7 752.361 925.046 753.618C943.525 763.361 956.612 770.537 973.001 781.639C976.667 784.175 972.535 780.901 976.048 783.34C994.581 796.323 1012.25 812.168 1023.76 831.429C1026.24 835.691 1023.7 831.928 1024.86 833.974C1029.62 843.007 1031.11 845.063 1034.06 854.62C1034.62 856.658 1034.06 855.58 1034.14 855.958C1035.39 861.907 1036.67 866.799 1036.89 868.346C1039.34 887.974 1036.32 900.937 1031.05 918.191C1030.35 920.302 1032.27 915.633 1030.24 921.583C1020.69 948.201 1005.84 970.914 987.458 994.326C978.472 1005.67 969.753 1017.46 961.359 1029.26C957.703 1034.41 960.102 1030.59 959.851 1030.89C955.765 1035.96 953.824 1039.86 952.651 1041.62C943.434 1055.39 934.492 1068.16 929.06 1077.87C890.876 1136.68 855.546 1196.97 817.526 1255.3C817.046 1256.04 817.648 1254.55 816.691 1256.02C805.123 1273.79 807.654 1270.66 800.483 1282.73C798.676 1285.77 792.195 1294.41 791.623 1295.18C789.555 1297.98 791.179 1294.73 790.508 1295.68C784.951 1303.57 787.045 1303.05 779.811 1313.84C779.583 1314.18 780.314 1312.61 779.684 1313.5C777.726 1316.26 775.933 1319.11 773.994 1321.8C769.543 1327.96 767.462 1329.79 761.2 1339.54C760.402 1340.77 762.374 1339.41 755.683 1348.89C753.035 1352.68 741.142 1369.34 737.691 1373.92C734.268 1378.51 736.377 1375.18 736.127 1375.5C726.692 1387.74 730.041 1382.93 725.008 1388.82C719.958 1394.68 722.22 1393.71 720.429 1396.3C718.651 1398.89 711.502 1407.71 709.708 1409.83C707.921 1411.96 709.92 1409.13 708.356 1411.04C697.952 1423.68 704.391 1417.06 701.197 1421.41C693.596 1431.67 686.602 1438.74 679.019 1447.58C676.956 1449.98 678.783 1448.14 676.974 1450.3C669.776 1458.83 665.241 1463.61 656.916 1473.23C655.562 1474.8 649.052 1482.73 644.223 1487.24C643.538 1487.88 645.203 1485.8 641.914 1489.19C636.968 1494.32 628.003 1503.4 622.651 1508.75C618.669 1512.73 623.552 1508.48 618.382 1513.35C616.078 1515.51 620.131 1511.29 615.813 1515.35C611.52 1519.42 600.598 1529.55 596.254 1533.38C591.983 1537.18 594.51 1535.31 594.178 1535.63C592.167 1537.59 583.966 1544.82 583.219 1545.42C545.876 1576.87 507.712 1601.73 464.261 1621.02C460.838 1622.52 463.239 1621.8 462.718 1622.03C450.976 1627.12 459.977 1622.51 451.617 1625.61C453.032 1625.69 448.131 1627.61 439.688 1630.71C435.611 1632.19 437.914 1631.62 437.549 1631.77C431.589 1634.24 427.158 1635.13 426.033 1635.38C422.739 1636.13 419.343 1637.34 416.646 1638.09C415.944 1638.28 415.292 1638.45 414.704 1638.57C411.9 1639.19 418.105 1636.9 409.944 1639.46C407.733 1640.41 413.933 1638.96 407.807 1641.09C384.048 1648.21 344.95 1673.58 330.807 1687.19C315.757 1700.65 311.998 1705.11 303.966 1713.7C290.051 1729.38 295.565 1723.75 287.58 1733.97C279.775 1744.42 282.83 1738.8 281.506 1740.16C280.222 1741.5 279.163 1743.32 277.745 1745.06C276.336 1746.81 279.047 1742.79 275.933 1747.03C272.783 1751.23 264.97 1763.63 264.165 1765.41C262.435 1769.08 266.295 1763.77 258.701 1775.7C258.276 1776.38 259.393 1774.02 257.777 1776.63C244.86 1797.54 233.224 1820.63 223.443 1843.34C222.111 1846.44 223 1843.54 222.224 1845.35C214.287 1864.31 217.558 1857.73 214.063 1868.55C214.269 1865.92 211.494 1871.56 206.545 1886.33C203.611 1895.27 204.442 1893.84 202.849 1899.74C202.373 1901.5 200.229 1907.92 200.069 1909.07C199.493 1913.01 201.636 1907.12 197.213 1922.54C197.022 1923.22 197.329 1920.97 196.689 1923.33C192.662 1938.55 192.671 1940.72 189.237 1957.25C186.513 1970.3 182.289 1993.76 180.517 2008.86C179.687 2008.41 178.252 2022.87 178.376 2028.68C177.478 2038.46 176.827 2049.12 176.361 2058.69C176.203 2061.99 176.043 2059.81 176 2060.23C175.341 2066.63 175.835 2070.88 175.817 2073.01C175.671 2096.07 175.921 2114.99 178.198 2136.93C178.286 2137.71 178.96 2138.92 179.112 2144.85C179.124 2145.24 178.118 2137.98 179.152 2148.35C180.159 2158.62 182.468 2178.08 185.406 2192.25C186.084 2195.66 188.213 2204.19 189.367 2211.18C189.518 2212.11 189.132 2211.14 189.332 2212.49C189.992 2216.86 191.106 2219.07 191.828 2224.23C192.572 2229.42 194.76 2239.93 199.275 2253.78C199.419 2254.22 200.855 2257.38 202.233 2261.75C204.421 2268.75 207.679 2278.6 210.317 2285.71C211.581 2289.12 211.048 2286.84 211.272 2287.43C220.114 2310.35 226.826 2326.35 238.873 2349.87C241.124 2354.28 247.994 2366.03 252.533 2374.22C257.578 2383.18 250.588 2374.99 263.684 2394.86C268.975 2402.67 277.118 2411.51 286.766 2425.78C306.976 2451.85 327.321 2474.85 352.049 2497.29C353.147 2498.29 357.112 2501.22 359.653 2503.49C363.466 2506.9 365.447 2508.93 368.232 2511.34C379.837 2521.38 391.632 2530.45 403.483 2539.21C408.015 2542.54 406.266 2541.58 411.748 2545.52C417.261 2549.44 421.151 2551.76 428.807 2557.04C434.56 2561 440.373 2565.53 447.941 2570.27C448.59 2569.89 453.84 2573.2 463.668 2578.7C465.56 2579.75 463.662 2578.39 464.564 2578.88C468.234 2580.86 471.52 2582.93 475.083 2584.76C475.95 2585.21 476.098 2585.03 476.814 2585.38C482.881 2588.38 492.679 2594.08 494.156 2594.92C500.331 2598.46 503.47 2599.69 508.373 2602.24C513.288 2604.78 505.775 2601.31 511.559 2604.2C523.372 2610.13 540.218 2617.6 552.252 2622.56C557.212 2624.6 553.941 2622.93 554.653 2623.22C564.941 2627.37 575.526 2631.76 581.667 2633.39C588.548 2637.54 588.241 2635.74 603.541 2641.35C604.705 2641.77 605.958 2642.97 601.431 2641.53C596.679 2640.02 589.58 2637.27 583.103 2635.06C581.553 2634.54 572.656 2631.91 571.482 2631.49C562.198 2628.25 561.37 2626.69 560.904 2626.45C555.704 2623.7 545.306 2620.14 542.637 2619.03C529.766 2613.76 519.314 2608.75 509.113 2603.99C502.462 2600.86 501.515 2601.17 496.417 2598.56C479.54 2589.79 473.5 2585.33 457.504 2576.99C454.094 2575.15 456.909 2577.84 445.457 2570.12C444.79 2569.67 436.255 2563.68 430.93 2560.58C430.265 2560.2 430.161 2560.4 429.308 2559.86C423.604 2556.24 419.997 2553.58 414.002 2549.5C407.99 2545.39 401.014 2540.49 394.462 2535.41C390.415 2532.29 385.569 2527.94 383.752 2526.36C378.6 2521.88 372.724 2517.63 369.784 2514.66C366.834 2511.67 373.387 2516.57 365.238 2509.25C364.546 2509.43 363.448 2509.28 362.568 2509.29C344.215 2493.21 327.539 2476.47 311.165 2458.04C309.15 2455.76 310.966 2458.3 308.808 2455.87C299.686 2445.48 292.609 2436.47 283.795 2424.97C277.072 2416.19 269.856 2406.56 263.539 2397.1C260.2 2390.9 250.874 2376.44 244.942 2365.68C242.847 2361.91 243.15 2362.07 241.727 2359.36C236.411 2349.08 238.466 2354.1 236.881 2351.32C230.213 2339.27 230.848 2337.63 224.093 2323.08C223.719 2322.32 218.88 2313.12 218.28 2311.76C214.447 2303.4 217.907 2310.26 215.758 2304.93C211.899 2295.2 209.454 2288.37 205.228 2276.95C204 2273.64 200.811 2265.56 199.104 2258.83C198.878 2257.94 199.253 2258.35 199.05 2257.65C195.428 2244.85 194.705 2244.71 192.468 2237.47C190.243 2230.23 188.02 2218.58 187.665 2216.23C186.669 2210.04 188.879 2220.87 189.016 2221.19C190.374 2224.96 188.29 2216.64 186.97 2210.24C187.467 2209.16 185.6 2200.25 185.622 2203.61C185.622 2203.99 186.72 2208.95 186.97 2210.24C185.055 2204.76 182.974 2195.03 181.799 2183.89C181.294 2178.7 182.306 2183.5 179.907 2167.92C178.885 2160.85 178.747 2163.65 177.833 2157.41C175.754 2143.18 174.689 2124.27 174.052 2109.51C173.816 2104.13 173.74 2109.4 173.577 2105.7C173.166 2095.85 173.271 2087.19 173.264 2077.37C173.265 2076.48 172.949 2078.65 172.984 2075.6C173.317 2052.36 174.8 2032.31 177.686 2008.11C179.02 1996.47 182.086 1975.79 184.505 1963.85C188.433 1943.34 195.237 1918.17 200.407 1901.05C203.812 1889.77 202.808 1892.18 204.166 1887.33C206.756 1878 213.333 1862.17 214.325 1860.02C214.339 1859.94 210.834 1869.49 212.875 1864.46C214.272 1861.62 214.286 1860.13 214.325 1860.02C214.869 1858.56 222.489 1839.96 224.094 1836.4C224.926 1834.42 224.197 1835.41 224.646 1834.36C235.409 1809.38 247.934 1785.56 262.958 1762.61C263.227 1762.21 263.085 1762.98 263.715 1762.03C272.544 1748.83 278.121 1740.57 286.116 1730.02C294.005 1719.7 301.016 1711.97 306.736 1706.63C313.373 1699.36 323.726 1689.75 330.063 1684.49C336.307 1679.28 336.83 1678.2 337.366 1677.73C354.74 1663.47 365.811 1656.42 386.709 1646.29C393.411 1643.09 405.357 1638.2 415.844 1635.26C420.742 1633.85 425.281 1632.42 428.849 1631.23C437.675 1628.28 442.989 1626.48 450.938 1623.26C452.011 1622.81 450.824 1623 451.15 1622.86C459.898 1618.98 455.878 1621.29 457.753 1620.64C464.528 1618.22 468.704 1616.71 479.669 1611.15C482.199 1609.88 489.165 1605.29 493.628 1602.79C499.465 1599.52 497.42 1601.04 503.49 1597.51C504.007 1597.2 503.802 1597.1 507.554 1594.91C524.905 1584.78 543.13 1572.51 559.727 1559.68C561.98 1557.94 558.893 1559.92 562.139 1557.39C577.417 1545.47 593.529 1531.53 607.361 1518.72C610.771 1515.56 608.807 1517.73 609.588 1517.09C614.38 1513.14 620.308 1506.49 621.298 1505.49C645.642 1480.86 663.724 1461.48 686.083 1434.1C687.3 1432.63 696.178 1420.69 700.664 1415.87C700.973 1415.54 705.465 1410.77 708.705 1405.96C708.906 1405.66 706.183 1408.71 710.56 1403.1C714.947 1397.48 721.689 1388.28 727.763 1380.6C729.686 1378.18 734.492 1372.62 739.532 1364.88C739.87 1364.38 747.345 1352.21 750.832 1348.44C751.396 1347.83 751.524 1348.98 757.523 1339.72C758.665 1337.95 756.35 1340.99 759.429 1336.38C764.141 1329.31 770.666 1320.12 776.223 1311.26C777.196 1309.72 781.088 1303.01 784.844 1298.03C785.433 1297.25 784.614 1298.93 786.455 1296.2C795.2 1283.23 803.971 1269.41 812.653 1256.14C815.723 1251.44 814.504 1254.09 817.75 1249.19C821.007 1244.27 827.405 1234.34 830.493 1229.07C833.588 1223.8 829.487 1229.15 834.347 1221.29C855.37 1187.3 876.328 1153.67 897.52 1119.79C900.659 1114.78 897.877 1118.8 902.472 1111.45C919.386 1084.18 949.674 1037.2 966.706 1015C980.153 997.333 963.775 1020.07 974.072 1006.4C978.389 1000.71 982.499 994.561 984.377 991.901C984.753 991.372 985.046 990.965 985.244 990.706C997.918 973.833 1004.17 965.292 1013.43 948.767C1015.13 945.606 1013.19 948.547 1014.62 945.871C1017.05 941.275 1019.23 936.884 1021.31 932.246C1023.61 927.115 1025.54 922.174 1027.06 917.567C1028.39 913.449 1027.93 914.137 1029 910.43C1031.58 901.244 1033.1 892.27 1033.52 883.408C1033.55 882.554 1033.72 888.407 1033.86 881.129C1033.97 869.313 1031.45 855.287 1025.47 843.201C1023.68 839.707 1023.39 839.789 1019.31 832.352C1018.35 830.825 1020.41 832.305 1014.02 824.386C1013.23 823.099 1001.84 810.797 995.887 805.065C994.439 803.545 990.707 799.532 986.848 796.528C986.323 796.124 988.216 798.002 985.043 795.491C973.855 786.704 961.352 778.529 948.969 771.453C945.638 769.561 950.451 772.657 945.468 769.837C931.331 761.855 914.011 753.221 899.481 746.508C894.37 744.144 898.012 745.537 897.651 745.344C891.809 742.228 887.914 741.156 885.856 740.29C872.854 734.837 863.337 730.611 851.397 725.859C848.089 724.547 850.327 725.744 849.66 725.502C842.732 722.98 848.016 724.567 843.688 722.781C831.538 717.776 818.394 712.717 805.873 707.977C801.309 706.251 806.286 708.488 802.25 706.959C778.501 697.974 753.444 688.589 730.067 679.423C725.699 677.709 728.542 678.54 727.65 678.137C721.499 675.357 712.062 672.257 709.914 671.468C700.157 667.893 696.448 666.188 687.943 662.819C646.237 646.404 595.679 623.738 558.648 602.88C510.651 575.729 474.833 550.769 438.469 512.345C436.206 509.889 438.248 512.598 436.291 510.466C410.952 482.75 391.083 450.862 378.773 415.199C377.785 412.305 378.896 416.589 377.32 411.929C374.112 402.485 370.764 389.361 369.062 379.62C368.204 374.759 369.666 381.223 368.814 376.326C366.876 365.099 365.42 351.578 364.862 340.198C364.621 335.177 364.62 342.78 364.357 336.232C364.027 326.842 364.123 317.235 364.666 307.387C366.568 272.105 367.292 237.274 365.13 201.547C364.937 198.546 365.381 195.633 364.646 189.133C364.422 188.659 364.216 188.706 364.006 188.511C358.717 127.434 336.513 46.9491 266.062 43.9058C263.375 43.7278 268.01 44.3435 262.785 44.0491C241.301 43.1629 220.272 47.8274 199.497 54.5721C190.766 57.4293 182.021 59.7828 172.873 61.6503C169.718 62.2528 171.319 61.445 162.042 63.1669C160.435 63.5584 146.479 65.4739 142.809 65.7705C142.314 65.8252 144.916 65.9167 140.358 66.2604C113.912 68.2062 85.8882 64.8418 60.722 56.4698C56.6831 55.1172 61.0768 56.2526 58.2169 55.2784C37.8727 48.3448 16.7437 37.5229 0.550533 24.7338C-10.1193 16.0007 -5.76574 18.7614 -10.8558 13.4832C-11.5241 12.8745 -17.536 6.56307 -17.4558 6.04183C-17.6137 4.73698 -14.3795 7.2023 -14.8665 5.45528C-15.189 5.15427 -21.6463 -3.35806 -17.616 1.48901C-17.4408 1.8789 -12.0757 7.83131 -10.5224 9.03853C-9.46189 9.95429 -11.0196 8.00057 -8.94232 9.86648C-6.88109 11.686 -4.74299 14.0098 -1.09146 16.8495C2.69563 19.696 1.1451 18.2203 8.68245 23.675ZM359.541 1662.8C365.944 1659.01 366.327 1657.55 359.673 1662.1C359.353 1662.33 359.212 1663 359.541 1662.8ZM328.426 2475.48C322.072 2468.24 316.96 2463.6 321.476 2469.01C325.872 2474.23 330.395 2477.7 328.426 2475.48ZM405.407 2541.76C396.538 2534.78 394.236 2534.9 404.134 2541.84C404.714 2542.25 405.93 2542.16 405.407 2541.76ZM16.0447 33.7718C15.9415 33.718 10.8603 30.4321 10.7236 30.3293C7.81251 28.8438 18.0368 35.4832 16.0447 33.7718ZM491.531 2594.42C488.55 2592.67 479.064 2587.84 482.966 2590.21C486.154 2592.18 495.312 2596.67 491.531 2594.42ZM678.425 1447.49C678.515 1447.41 681.335 1444.09 681.205 1444.1C680.811 1444.14 676.95 1448.83 678.425 1447.49ZM650.653 2656.64C625.984 2649.47 612.071 2643.59 638.262 2651.84C643.047 2653.3 627.83 2649.09 633.888 2651.04C644.987 2654.61 652.726 2656.03 664.393 2659.61C666.49 2660.27 652.035 2657.07 650.609 2656.63C650.623 2656.63 650.639 2656.63 650.653 2656.64ZM363.815 1661.54C363.923 1661.47 369.024 1658.36 369.185 1658.27C371.796 1656.28 361.44 1662.58 363.815 1661.54ZM825.924 1241.53C826.136 1241.26 833.582 1229.49 833.79 1229.1C837.2 1222.67 822.154 1246.45 825.924 1241.53ZM180.466 2009.09C180.009 2015.63 179.245 2023.55 178.379 2028.65C178.971 2022.22 179.665 2015.59 180.466 2009.09Z" fill="#505050"/>
</svg>
